<svg viewBox="0 0 526 1000" fill="none" xmlns="http://www.w3.org/2000/svg">
<g id="Group 54">
<g id="Group 2">
<g id="iPhone-X-Mockup">
<g id="phone">
<path id="body" fill-rule="evenodd" clip-rule="evenodd" d="M71.552 1.13916H454.018C490.699 1.13916 520.435 29.6099 520.435 64.7302V935.27C520.435 970.391 490.699 998.861 454.018 998.861H71.552C34.8713 998.861 5.13574 970.391 5.13574 935.27V64.7302C5.13574 29.6099 34.8713 1.13916 71.552 1.13916Z" fill="#213648"/>
<g id="frame">
<path id="reflect-frame-top" opacity="0.595562" fill-rule="evenodd" clip-rule="evenodd" d="M455.497 0H69.8451C51.8401 1.09791 35.2348 9.31387 20.0293 24.6479C29.8082 16.1118 47.2497 4.68913 70.3093 4.68913C70.3093 4.68913 439.66 4.68913 455.033 4.68913C478.093 4.68913 495.534 16.1118 505.313 24.6479C490.108 9.31387 473.502 1.09791 455.497 0Z" fill="url(#paint0_linear_37_162)" fill-opacity="0.65"/>
<path id="reflect-frame-right" opacity="0.75" fill-rule="evenodd" clip-rule="evenodd" d="M509.999 925.341V69.9633C509.999 47.0128 501.564 38.5286 496.532 33.0808C491.5 27.6329 491.286 24.8542 498.516 28.9675C505.746 33.0808 520.207 45.0609 520.207 69.9633V925.341C520.207 950.244 505.746 962.224 498.516 966.337C491.286 970.451 491.5 967.672 496.532 962.224C501.564 956.776 509.999 948.292 509.999 925.341Z" fill="url(#paint1_linear_37_162)"/>
<path id="reflect-frame-left" opacity="0.75" fill-rule="evenodd" clip-rule="evenodd" d="M15.3439 925.341V69.9633C15.3439 47.0128 23.7788 38.5286 28.8106 33.0808C33.8425 27.6329 34.0566 24.8542 26.8268 28.9675C19.5969 33.0808 5.13595 45.0609 5.13595 69.9633V925.341C5.13595 950.244 19.5969 962.224 26.8268 966.337C34.0566 970.451 33.8425 967.672 28.8106 962.224C23.7788 956.776 15.3439 948.292 15.3439 925.341Z" fill="url(#paint2_linear_37_162)"/>
</g>
<g id="controls">
<path id="vol+" fill-rule="evenodd" clip-rule="evenodd" d="M0 207.113C0 204.904 1.79086 203.113 4 203.113H5.92908C8.13822 203.113 9.92908 204.904 9.92908 207.113V327.814C9.92908 330.024 8.13822 331.814 5.92908 331.814H4C1.79086 331.814 0 330.024 0 327.814V207.113Z" fill="#2E423C"/>
<path id="power" fill-rule="evenodd" clip-rule="evenodd" d="M515.071 312.086C515.071 309.877 516.862 308.086 519.071 308.086H521C523.209 308.086 525 309.877 525 312.086V397.987C525 400.196 523.209 401.987 521 401.987H519.071C516.862 401.987 515.071 400.196 515.071 397.987V312.086Z" fill="#2E423C"/>
</g>
</g>
<g id="Screen" clip-path="url(#clip0_37_162)">
<path id="Screen Mask" fill-rule="evenodd" clip-rule="evenodd" d="M217.352 24.8892L68.5396 24.8892C46.3307 24.8892 30.1484 40.0157 30.1484 59.772V904.551C30.1484 930.311 55.153 953.135 83.4268 953.135H442.093C469.328 953.135 495.371 930.134 495.371 904.551V62.0555C495.371 38.3762 477.792 25.03 456.98 24.8892L305.808 24.8892C305.235 24.983 294.851 29.2527 290.462 40.0157C286.073 50.7788 277.242 59.3589 267.573 59.3589H256.343C251.747 59.3589 239.647 54.8995 233.521 40.0157C227.394 25.132 217.925 24.983 217.352 24.8892Z" fill="white"/>
<mask id="mask0_37_162" style="mask-type:alpha" maskUnits="userSpaceOnUse" x="30" y="24" width="466" height="930">
<path id="Screen Mask_2" fill-rule="evenodd" clip-rule="evenodd" d="M217.352 24.8892L68.5396 24.8892C46.3307 24.8892 30.1484 40.0157 30.1484 59.772V904.551C30.1484 930.311 55.153 953.135 83.4268 953.135H442.093C469.328 953.135 495.371 930.134 495.371 904.551V62.0555C495.371 38.3762 477.792 25.03 456.98 24.8892L305.808 24.8892C305.235 24.983 294.851 29.2527 290.462 40.0157C286.073 50.7788 277.242 59.3589 267.573 59.3589H256.343C251.747 59.3589 239.647 54.8995 233.521 40.0157C227.394 25.132 217.925 24.983 217.352 24.8892Z" fill="white"/>
</mask>
<g mask="url(#mask0_37_162)">
<rect id="Rectangle" x="30" y="24.8892" width="466" height="930" fill="url(#paint3_linear_37_162)"/>
<path id="12:49" d="M189.008 282V247.344H180.752V242.064C183.397 242.064 185.531 241.819 187.152 241.328C188.795 240.816 190.021 240.091 190.832 239.152C191.643 238.192 192.123 237.051 192.272 235.728H198.48V282H189.008ZM208.991 282V277.392V275.024C208.991 272.677 209.428 270.651 210.303 268.944C211.178 267.216 212.33 265.723 213.759 264.464C215.21 263.184 216.788 262.064 218.495 261.104C220.223 260.144 221.951 259.237 223.679 258.384C225.407 257.531 226.986 256.677 228.415 255.824C229.866 254.949 231.028 253.979 231.903 252.912C232.778 251.845 233.215 250.587 233.215 249.136C233.215 247.28 232.564 245.765 231.263 244.592C229.983 243.419 228.223 242.832 225.983 242.832C223.658 242.832 221.684 243.504 220.063 244.848C218.442 246.192 217.439 248.219 217.055 250.928H208.127C208.17 247.984 208.852 245.317 210.175 242.928C211.519 240.517 213.524 238.608 216.191 237.2C218.858 235.792 222.207 235.088 226.239 235.088C229.695 235.088 232.671 235.675 235.167 236.848C237.684 238.021 239.626 239.653 240.991 241.744C242.356 243.835 243.039 246.277 243.039 249.072C243.039 251.397 242.612 253.403 241.759 255.088C240.906 256.773 239.775 258.213 238.367 259.408C236.959 260.603 235.412 261.648 233.727 262.544C232.042 263.44 230.356 264.272 228.671 265.04C227.007 265.808 225.471 266.597 224.063 267.408C222.655 268.197 221.524 269.093 220.671 270.096C219.818 271.099 219.391 272.304 219.391 273.712V274.128H242.975V282H208.991ZM259.408 249.712V259.728H249.168V249.712H259.408ZM259.408 271.824V281.808H249.168V271.824H259.408ZM286.903 235.728H296.087V263.92H303.223V271.76H296.087V282H287.095L287.127 271.76H265.815V264.08L286.903 235.728ZM274.455 263.92H287.127V246.96L274.455 263.92ZM324.871 282.704C321.991 282.704 319.303 282.149 316.807 281.04C314.311 279.931 312.273 278.373 310.695 276.368C309.116 274.341 308.231 271.973 308.039 269.264H316.935C317.319 271.056 318.172 272.517 319.495 273.648C320.817 274.757 322.481 275.312 324.487 275.312C326.705 275.312 328.647 274.789 330.311 273.744C331.996 272.699 333.255 271.035 334.087 268.752C334.94 266.469 335.239 263.483 334.983 259.792C334.385 260.923 333.553 261.915 332.487 262.768C331.441 263.6 330.215 264.251 328.807 264.72C327.399 265.168 325.831 265.392 324.103 265.392C320.967 265.392 318.183 264.805 315.751 263.632C313.34 262.437 311.441 260.752 310.055 258.576C308.689 256.379 308.007 253.776 308.007 250.768C308.007 247.739 308.732 245.04 310.183 242.672C311.633 240.304 313.66 238.448 316.263 237.104C318.865 235.76 321.916 235.088 325.415 235.088C329.34 235.088 332.721 236.027 335.559 237.904C338.417 239.76 340.604 242.405 342.119 245.84C343.655 249.253 344.423 253.275 344.423 257.904C344.423 263.429 343.633 268.037 342.055 271.728C340.497 275.397 338.257 278.149 335.335 279.984C332.412 281.797 328.924 282.704 324.871 282.704ZM325.703 257.968C327.004 257.968 328.263 257.68 329.479 257.104C330.716 256.507 331.729 255.76 332.519 254.864C333.308 253.968 333.703 253.04 333.703 252.08C333.724 250.011 333.393 248.24 332.711 246.768C332.049 245.275 331.111 244.133 329.895 243.344C328.7 242.555 327.303 242.16 325.703 242.16C324.231 242.16 322.919 242.501 321.767 243.184C320.615 243.867 319.708 244.827 319.047 246.064C318.385 247.301 318.055 248.731 318.055 250.352C318.055 252.763 318.759 254.64 320.167 255.984C321.575 257.307 323.42 257.968 325.703 257.968Z" fill="white"/>
</g>
</g>
</g>
</g>
<g id="Group 29" clip-path="url(#clip1_37_162)">
<g id="Rectangle_2" filter="url(#filter0_d_37_162)">
<rect x="44" y="334" width="436" height="174" rx="5" fill="#FBFCFE"/>
</g>
<g id="Group 28" clip-path="url(#clip2_37_162)">
<path id="PayAPI" d="M77.62 386V371.54H82.94C83.9933 371.54 84.9367 371.723 85.77 372.09C86.6033 372.45 87.26 372.983 87.74 373.69C88.2267 374.397 88.47 375.26 88.47 376.28C88.47 377.24 88.2567 378.06 87.83 378.74C87.4033 379.42 86.8033 379.94 86.03 380.3C85.2633 380.66 84.36 380.84 83.32 380.84H80.56V386H77.62ZM80.53 378.58H83.24C83.9733 378.58 84.5733 378.347 85.04 377.88C85.5067 377.407 85.74 376.823 85.74 376.13C85.74 375.41 85.4933 374.84 85 374.42C84.5067 373.993 83.9067 373.78 83.2 373.78H80.53V378.58ZM93.0234 386.2C92.3634 386.2 91.7701 386.077 91.2434 385.83C90.7168 385.583 90.3001 385.227 89.9934 384.76C89.6868 384.287 89.5334 383.713 89.5334 383.04C89.5334 381.907 89.9568 381.047 90.8034 380.46C91.6501 379.867 92.9868 379.56 94.8134 379.54L96.1034 379.52V378.9C96.1034 378.427 95.9634 378.063 95.6834 377.81C95.4101 377.55 94.9834 377.423 94.4034 377.43C93.9768 377.437 93.5701 377.537 93.1834 377.73C92.8034 377.923 92.5434 378.26 92.4034 378.74H89.9734C90.0134 377.993 90.2301 377.38 90.6234 376.9C91.0168 376.413 91.5501 376.053 92.2234 375.82C92.9034 375.58 93.6734 375.46 94.5334 375.46C95.5934 375.46 96.4434 375.593 97.0834 375.86C97.7234 376.12 98.1868 376.497 98.4734 376.99C98.7601 377.477 98.9034 378.057 98.9034 378.73V386H96.4634L96.2234 384.22C95.8701 384.967 95.4268 385.483 94.8934 385.77C94.3668 386.057 93.7434 386.2 93.0234 386.2ZM94.0034 384.28C94.2701 384.28 94.5268 384.233 94.7734 384.14C95.0268 384.04 95.2501 383.91 95.4434 383.75C95.6434 383.583 95.8034 383.397 95.9234 383.19C96.0434 382.983 96.1034 382.77 96.1034 382.55V381.02L95.0534 381.04C94.5668 381.047 94.1134 381.107 93.6934 381.22C93.2734 381.327 92.9334 381.503 92.6734 381.75C92.4201 381.997 92.2934 382.33 92.2934 382.75C92.2934 383.23 92.4601 383.607 92.7934 383.88C93.1268 384.147 93.5301 384.28 94.0034 384.28ZM102.727 389.3C102.021 389.3 101.521 389.24 101.227 389.12C100.941 389.007 100.797 388.95 100.797 388.95V387.09L101.817 387.13C102.264 387.157 102.624 387.133 102.897 387.06C103.171 386.993 103.377 386.903 103.517 386.79C103.664 386.677 103.767 386.557 103.827 386.43C103.887 386.31 103.931 386.213 103.957 386.14L104.147 385.57L100.127 375.66H103.017L105.497 382.4L108.007 375.66H110.857L106.667 386.06C106.307 386.94 105.927 387.613 105.527 388.08C105.127 388.547 104.694 388.867 104.227 389.04C103.767 389.213 103.267 389.3 102.727 389.3ZM110.456 386L115.636 371.54H118.716L123.886 386H120.976L119.796 382.65H114.596L113.386 386H110.456ZM115.246 380.1H119.096L117.186 374.36L115.246 380.1ZM126.058 386V371.54H131.378C132.431 371.54 133.374 371.723 134.208 372.09C135.041 372.45 135.698 372.983 136.178 373.69C136.664 374.397 136.908 375.26 136.908 376.28C136.908 377.24 136.694 378.06 136.268 378.74C135.841 379.42 135.241 379.94 134.468 380.3C133.701 380.66 132.798 380.84 131.758 380.84H128.998V386H126.058ZM128.968 378.58H131.678C132.411 378.58 133.011 378.347 133.478 377.88C133.944 377.407 134.178 376.823 134.178 376.13C134.178 375.41 133.931 374.84 133.438 374.42C132.944 373.993 132.344 373.78 131.638 373.78H128.968V378.58ZM139.104 371.54H142.014V386H139.104V371.54Z" fill="#BA4270"/>
<path id="Just Now" opacity="0.5" d="M371.218 382.59C371.218 383.357 371.131 384.01 370.958 384.55C370.785 385.09 370.475 385.5 370.028 385.78C369.588 386.06 368.961 386.2 368.148 386.2C367.635 386.2 367.151 386.14 366.698 386.02C366.251 385.9 365.955 385.81 365.808 385.75L365.938 383.98C366.145 384.053 366.381 384.147 366.648 384.26C366.921 384.367 367.258 384.42 367.658 384.42C368.311 384.42 368.758 384.24 368.998 383.88C369.245 383.52 369.368 382.913 369.368 382.06V371.54H371.218V382.59ZM378.081 386.2C377.541 386.193 377.031 386.117 376.551 385.97C376.078 385.817 375.658 385.593 375.291 385.3C374.925 385.007 374.635 384.643 374.421 384.21C374.215 383.77 374.111 383.26 374.111 382.68V375.66H375.961V382.49C375.961 383.163 376.168 383.71 376.581 384.13C377.001 384.55 377.631 384.76 378.471 384.76C379.231 384.76 379.841 384.563 380.301 384.17C380.768 383.77 381.001 383.177 381.001 382.39V375.66H382.841V386H381.371L381.181 384.02C381.055 384.54 380.838 384.96 380.531 385.28C380.231 385.6 379.868 385.837 379.441 385.99C379.021 386.137 378.568 386.207 378.081 386.2ZM389.397 386.2C388.677 386.2 388.007 386.09 387.387 385.87C386.773 385.643 386.263 385.293 385.857 384.82C385.45 384.34 385.193 383.73 385.087 382.99H386.767C386.86 383.397 387.027 383.737 387.267 384.01C387.513 384.277 387.82 384.48 388.187 384.62C388.553 384.753 388.953 384.82 389.387 384.82C390.08 384.82 390.64 384.69 391.067 384.43C391.493 384.17 391.707 383.77 391.707 383.23C391.707 382.85 391.593 382.547 391.367 382.32C391.147 382.087 390.803 381.917 390.337 381.81L388.197 381.28C387.363 381.08 386.697 380.767 386.197 380.34C385.697 379.913 385.447 379.317 385.447 378.55C385.44 377.943 385.583 377.41 385.877 376.95C386.17 376.49 386.61 376.127 387.197 375.86C387.783 375.593 388.513 375.46 389.387 375.46C390.507 375.46 391.41 375.713 392.097 376.22C392.79 376.72 393.15 377.457 393.177 378.43H391.547C391.48 377.937 391.257 377.547 390.877 377.26C390.503 376.967 390 376.82 389.367 376.82C388.707 376.82 388.17 376.953 387.757 377.22C387.343 377.48 387.137 377.887 387.137 378.44C387.137 378.807 387.283 379.097 387.577 379.31C387.87 379.517 388.303 379.69 388.877 379.83L390.947 380.35C391.427 380.477 391.82 380.643 392.127 380.85C392.44 381.057 392.687 381.287 392.867 381.54C393.053 381.793 393.183 382.06 393.257 382.34C393.337 382.613 393.377 382.877 393.377 383.13C393.377 383.763 393.217 384.31 392.897 384.77C392.583 385.223 392.13 385.577 391.537 385.83C390.95 386.077 390.237 386.2 389.397 386.2ZM401 377.01H398.67V383.44C398.67 383.807 398.706 384.077 398.78 384.25C398.86 384.417 398.99 384.523 399.17 384.57C399.356 384.617 399.61 384.64 399.93 384.64H401.06V385.88C400.933 385.927 400.74 385.967 400.48 386C400.226 386.033 399.91 386.05 399.53 386.05C398.816 386.05 398.263 385.953 397.87 385.76C397.476 385.567 397.2 385.28 397.04 384.9C396.886 384.52 396.81 384.053 396.81 383.5V377.01H395.13V375.66H396.86L397.31 372.65H398.67V375.65H401V377.01ZM418.056 371.54H419.906V386H418.256L410.496 374.6V386H408.646V371.54H410.416L418.056 382.78V371.54ZM427.317 386.2C426.364 386.2 425.531 385.997 424.817 385.59C424.104 385.177 423.551 384.573 423.157 383.78C422.764 382.987 422.567 382.017 422.567 380.87C422.567 379.79 422.751 378.843 423.117 378.03C423.484 377.217 424.021 376.587 424.727 376.14C425.441 375.687 426.304 375.46 427.317 375.46C428.271 375.46 429.097 375.67 429.797 376.09C430.504 376.503 431.051 377.113 431.437 377.92C431.824 378.727 432.017 379.71 432.017 380.87C432.017 381.923 431.837 382.85 431.477 383.65C431.124 384.45 430.597 385.077 429.897 385.53C429.204 385.977 428.344 386.2 427.317 386.2ZM427.317 384.74C427.937 384.74 428.461 384.583 428.887 384.27C429.314 383.957 429.637 383.507 429.857 382.92C430.077 382.333 430.187 381.637 430.187 380.83C430.187 380.09 430.091 379.427 429.897 378.84C429.704 378.247 429.394 377.777 428.967 377.43C428.547 377.083 427.997 376.91 427.317 376.91C426.691 376.91 426.161 377.067 425.727 377.38C425.294 377.687 424.964 378.133 424.737 378.72C424.517 379.307 424.407 380.01 424.407 380.83C424.407 381.557 424.507 382.217 424.707 382.81C424.907 383.403 425.221 383.873 425.647 384.22C426.074 384.567 426.631 384.74 427.317 384.74ZM447.667 375.66L444.537 386H442.717L440.357 378.37L438.117 386H436.307L433.117 375.66H434.827L437.197 383.61H437.357L439.687 375.66H441.087L443.507 383.59H443.667L445.937 375.66H447.667Z" fill="#36536B"/>
</g>
<path id="The payment has been" d="M76.46 405.24V403.54H87.4V405.24H82.99V418H81.13V405.24H76.46ZM89.405 418V403.14H91.205V409.18C91.3783 408.893 91.6117 408.627 91.905 408.38C92.1983 408.127 92.555 407.923 92.975 407.77C93.395 407.61 93.8817 407.53 94.435 407.53C95.1083 407.53 95.7183 407.657 96.265 407.91C96.8117 408.157 97.245 408.51 97.565 408.97C97.885 409.43 98.045 409.977 98.045 410.61V418H96.195V410.98C96.195 410.36 95.9817 409.883 95.555 409.55C95.135 409.21 94.585 409.04 93.905 409.04C93.445 409.04 93.0117 409.117 92.605 409.27C92.1983 409.417 91.8683 409.643 91.615 409.95C91.3683 410.25 91.245 410.633 91.245 411.1V418H89.405ZM102.248 413.26C102.248 413.913 102.355 414.507 102.568 415.04C102.788 415.567 103.118 415.987 103.558 416.3C104.005 416.613 104.562 416.77 105.228 416.77C105.888 416.77 106.455 416.617 106.928 416.31C107.408 416.003 107.715 415.56 107.848 414.98H109.598C109.472 415.68 109.192 416.27 108.758 416.75C108.325 417.23 107.802 417.593 107.188 417.84C106.575 418.08 105.935 418.2 105.268 418.2C104.302 418.2 103.452 417.99 102.718 417.57C101.985 417.15 101.412 416.547 100.998 415.76C100.585 414.973 100.378 414.03 100.378 412.93C100.378 411.843 100.565 410.89 100.938 410.07C101.312 409.25 101.852 408.61 102.558 408.15C103.272 407.69 104.128 407.46 105.128 407.46C106.102 407.46 106.925 407.67 107.598 408.09C108.272 408.51 108.782 409.103 109.128 409.87C109.482 410.63 109.658 411.533 109.658 412.58V413.26H102.248ZM102.258 412.01H107.878C107.878 411.417 107.778 410.883 107.578 410.41C107.378 409.93 107.072 409.553 106.658 409.28C106.252 409 105.738 408.86 105.118 408.86C104.472 408.86 103.935 409.017 103.508 409.33C103.088 409.637 102.772 410.033 102.558 410.52C102.352 411 102.252 411.497 102.258 412.01ZM116.671 421.22V407.66H118.511L118.531 409.46C118.651 409.247 118.804 409.023 118.991 408.79C119.184 408.557 119.417 408.34 119.691 408.14C119.971 407.94 120.294 407.777 120.661 407.65C121.034 407.523 121.457 407.46 121.931 407.46C122.757 407.46 123.484 407.65 124.111 408.03C124.744 408.403 125.237 408.977 125.591 409.75C125.944 410.523 126.121 411.503 126.121 412.69C126.121 413.877 125.947 414.88 125.601 415.7C125.261 416.513 124.767 417.133 124.121 417.56C123.474 417.987 122.694 418.2 121.781 418.2C121.321 418.2 120.911 418.133 120.551 418C120.197 417.873 119.887 417.707 119.621 417.5C119.361 417.287 119.141 417.06 118.961 416.82C118.787 416.58 118.644 416.35 118.531 416.13V421.22H116.671ZM121.431 416.76C122.284 416.76 122.981 416.437 123.521 415.79C124.061 415.137 124.331 414.123 124.331 412.75C124.331 411.57 124.084 410.633 123.591 409.94C123.097 409.247 122.377 408.9 121.431 408.9C120.471 408.9 119.744 409.257 119.251 409.97C118.757 410.677 118.511 411.603 118.511 412.75C118.511 413.49 118.621 414.163 118.841 414.77C119.061 415.377 119.387 415.86 119.821 416.22C120.254 416.58 120.791 416.76 121.431 416.76ZM131.269 418.2C130.602 418.2 130.012 418.083 129.499 417.85C128.986 417.61 128.582 417.267 128.289 416.82C128.002 416.373 127.859 415.833 127.859 415.2C127.859 414.053 128.259 413.2 129.059 412.64C129.859 412.08 131.142 411.78 132.909 411.74L134.759 411.69V410.88C134.759 410.247 134.569 409.747 134.189 409.38C133.809 409.007 133.219 408.82 132.419 408.82C131.826 408.827 131.302 408.967 130.849 409.24C130.402 409.513 130.112 409.96 129.979 410.58H128.349C128.389 409.907 128.579 409.34 128.919 408.88C129.259 408.413 129.732 408.06 130.339 407.82C130.952 407.58 131.676 407.46 132.509 407.46C133.409 407.46 134.156 407.587 134.749 407.84C135.349 408.093 135.796 408.467 136.089 408.96C136.389 409.453 136.539 410.06 136.539 410.78V418H134.959L134.829 416.06C134.429 416.867 133.919 417.427 133.299 417.74C132.686 418.047 132.009 418.2 131.269 418.2ZM131.829 416.87C132.176 416.87 132.519 416.807 132.859 416.68C133.206 416.553 133.522 416.383 133.809 416.17C134.096 415.95 134.322 415.707 134.489 415.44C134.662 415.167 134.752 414.887 134.759 414.6V412.83L133.219 412.86C132.432 412.873 131.772 412.953 131.239 413.1C130.712 413.247 130.316 413.477 130.049 413.79C129.789 414.103 129.659 414.513 129.659 415.02C129.659 415.6 129.859 416.053 130.259 416.38C130.666 416.707 131.189 416.87 131.829 416.87ZM140.386 421.3C139.779 421.3 139.363 421.257 139.136 421.17C138.909 421.083 138.796 421.04 138.796 421.04V419.84L139.846 419.86C140.233 419.873 140.553 419.847 140.806 419.78C141.059 419.713 141.263 419.623 141.416 419.51C141.569 419.397 141.686 419.27 141.766 419.13C141.853 418.99 141.923 418.857 141.976 418.73L142.336 417.75L138.296 407.66H140.166L143.216 415.64L146.246 407.66H148.056L143.696 418.78C143.429 419.433 143.129 419.943 142.796 420.31C142.469 420.677 142.103 420.933 141.696 421.08C141.296 421.227 140.859 421.3 140.386 421.3ZM150.03 418V407.66H151.81V409.16C152.097 408.707 152.49 408.31 152.99 407.97C153.49 407.63 154.14 407.46 154.94 407.46C155.313 407.46 155.693 407.523 156.08 407.65C156.473 407.777 156.833 407.967 157.16 408.22C157.487 408.473 157.74 408.783 157.92 409.15C158.24 408.643 158.673 408.237 159.22 407.93C159.767 407.617 160.383 407.46 161.07 407.46C161.43 407.46 161.807 407.517 162.2 407.63C162.593 407.737 162.957 407.93 163.29 408.21C163.63 408.483 163.907 408.867 164.12 409.36C164.333 409.847 164.44 410.473 164.44 411.24V418H162.58V411.42C162.58 410.793 162.48 410.31 162.28 409.97C162.08 409.623 161.817 409.38 161.49 409.24C161.17 409.1 160.827 409.03 160.46 409.03C160.14 409.03 159.8 409.093 159.44 409.22C159.08 409.347 158.773 409.56 158.52 409.86C158.267 410.16 158.14 410.57 158.14 411.09V418H156.3V410.88C156.3 410.473 156.19 410.133 155.97 409.86C155.757 409.587 155.487 409.38 155.16 409.24C154.84 409.1 154.52 409.03 154.2 409.03C153.847 409.03 153.49 409.1 153.13 409.24C152.777 409.38 152.477 409.603 152.23 409.91C151.99 410.21 151.87 410.603 151.87 411.09V418H150.03ZM168.655 413.26C168.655 413.913 168.761 414.507 168.975 415.04C169.195 415.567 169.525 415.987 169.965 416.3C170.411 416.613 170.968 416.77 171.635 416.77C172.295 416.77 172.861 416.617 173.335 416.31C173.815 416.003 174.121 415.56 174.255 414.98H176.005C175.878 415.68 175.598 416.27 175.165 416.75C174.731 417.23 174.208 417.593 173.595 417.84C172.981 418.08 172.341 418.2 171.675 418.2C170.708 418.2 169.858 417.99 169.125 417.57C168.391 417.15 167.818 416.547 167.405 415.76C166.991 414.973 166.785 414.03 166.785 412.93C166.785 411.843 166.971 410.89 167.345 410.07C167.718 409.25 168.258 408.61 168.965 408.15C169.678 407.69 170.535 407.46 171.535 407.46C172.508 407.46 173.331 407.67 174.005 408.09C174.678 408.51 175.188 409.103 175.535 409.87C175.888 410.63 176.065 411.533 176.065 412.58V413.26H168.655ZM168.665 412.01H174.285C174.285 411.417 174.185 410.883 173.985 410.41C173.785 409.93 173.478 409.553 173.065 409.28C172.658 409 172.145 408.86 171.525 408.86C170.878 408.86 170.341 409.017 169.915 409.33C169.495 409.637 169.178 410.033 168.965 410.52C168.758 411 168.658 411.497 168.665 412.01ZM178.604 418V407.66H180.394V409.16C180.561 408.873 180.791 408.603 181.084 408.35C181.384 408.097 181.744 407.893 182.164 407.74C182.591 407.587 183.081 407.51 183.634 407.51C184.288 407.51 184.888 407.64 185.434 407.9C185.988 408.16 186.428 408.567 186.754 409.12C187.088 409.667 187.254 410.373 187.254 411.24V418H185.404V411.42C185.404 410.613 185.191 410.017 184.764 409.63C184.344 409.237 183.798 409.04 183.124 409.04C182.658 409.04 182.221 409.117 181.814 409.27C181.408 409.417 181.078 409.643 180.824 409.95C180.571 410.25 180.444 410.63 180.444 411.09V418H178.604ZM194.912 409.01H192.582V415.44C192.582 415.807 192.619 416.077 192.692 416.25C192.772 416.417 192.902 416.523 193.082 416.57C193.269 416.617 193.522 416.64 193.842 416.64H194.972V417.88C194.846 417.927 194.652 417.967 194.392 418C194.139 418.033 193.822 418.05 193.442 418.05C192.729 418.05 192.176 417.953 191.782 417.76C191.389 417.567 191.112 417.28 190.952 416.9C190.799 416.52 190.722 416.053 190.722 415.5V409.01H189.042V407.66H190.772L191.222 404.65H192.582V407.65H194.912V409.01ZM202.178 418V403.14H203.978V409.18C204.152 408.893 204.385 408.627 204.678 408.38C204.972 408.127 205.328 407.923 205.748 407.77C206.168 407.61 206.655 407.53 207.208 407.53C207.882 407.53 208.492 407.657 209.038 407.91C209.585 408.157 210.018 408.51 210.338 408.97C210.658 409.43 210.818 409.977 210.818 410.61V418H208.968V410.98C208.968 410.36 208.755 409.883 208.328 409.55C207.908 409.21 207.358 409.04 206.678 409.04C206.218 409.04 205.785 409.117 205.378 409.27C204.972 409.417 204.642 409.643 204.388 409.95C204.142 410.25 204.018 410.633 204.018 411.1V418H202.178ZM216.523 418.2C215.856 418.2 215.266 418.083 214.753 417.85C214.239 417.61 213.836 417.267 213.543 416.82C213.256 416.373 213.113 415.833 213.113 415.2C213.113 414.053 213.513 413.2 214.313 412.64C215.113 412.08 216.396 411.78 218.163 411.74L220.013 411.69V410.88C220.013 410.247 219.823 409.747 219.443 409.38C219.063 409.007 218.473 408.82 217.673 408.82C217.079 408.827 216.556 408.967 216.103 409.24C215.656 409.513 215.366 409.96 215.233 410.58H213.603C213.643 409.907 213.833 409.34 214.173 408.88C214.513 408.413 214.986 408.06 215.593 407.82C216.206 407.58 216.929 407.46 217.763 407.46C218.663 407.46 219.409 407.587 220.003 407.84C220.603 408.093 221.049 408.467 221.343 408.96C221.643 409.453 221.793 410.06 221.793 410.78V418H220.213L220.083 416.06C219.683 416.867 219.173 417.427 218.553 417.74C217.939 418.047 217.263 418.2 216.523 418.2ZM217.083 416.87C217.429 416.87 217.773 416.807 218.113 416.68C218.459 416.553 218.776 416.383 219.063 416.17C219.349 415.95 219.576 415.707 219.743 415.44C219.916 415.167 220.006 414.887 220.013 414.6V412.83L218.473 412.86C217.686 412.873 217.026 412.953 216.493 413.1C215.966 413.247 215.569 413.477 215.303 413.79C215.043 414.103 214.913 414.513 214.913 415.02C214.913 415.6 215.113 416.053 215.513 416.38C215.919 416.707 216.443 416.87 217.083 416.87ZM228.446 418.2C227.726 418.2 227.056 418.09 226.436 417.87C225.823 417.643 225.313 417.293 224.906 416.82C224.499 416.34 224.243 415.73 224.136 414.99H225.816C225.909 415.397 226.076 415.737 226.316 416.01C226.563 416.277 226.869 416.48 227.236 416.62C227.603 416.753 228.003 416.82 228.436 416.82C229.129 416.82 229.689 416.69 230.116 416.43C230.543 416.17 230.756 415.77 230.756 415.23C230.756 414.85 230.643 414.547 230.416 414.32C230.196 414.087 229.853 413.917 229.386 413.81L227.246 413.28C226.413 413.08 225.746 412.767 225.246 412.34C224.746 411.913 224.496 411.317 224.496 410.55C224.489 409.943 224.633 409.41 224.926 408.95C225.219 408.49 225.659 408.127 226.246 407.86C226.833 407.593 227.563 407.46 228.436 407.46C229.556 407.46 230.459 407.713 231.146 408.22C231.839 408.72 232.199 409.457 232.226 410.43H230.596C230.529 409.937 230.306 409.547 229.926 409.26C229.553 408.967 229.049 408.82 228.416 408.82C227.756 408.82 227.219 408.953 226.806 409.22C226.393 409.48 226.186 409.887 226.186 410.44C226.186 410.807 226.333 411.097 226.626 411.31C226.919 411.517 227.353 411.69 227.926 411.83L229.996 412.35C230.476 412.477 230.869 412.643 231.176 412.85C231.489 413.057 231.736 413.287 231.916 413.54C232.103 413.793 232.233 414.06 232.306 414.34C232.386 414.613 232.426 414.877 232.426 415.13C232.426 415.763 232.266 416.31 231.946 416.77C231.633 417.223 231.179 417.577 230.586 417.83C229.999 418.077 229.286 418.2 228.446 418.2ZM244.652 418.2C244.045 418.2 243.532 418.12 243.112 417.96C242.698 417.8 242.358 417.597 242.092 417.35C241.825 417.097 241.618 416.84 241.472 416.58C241.325 416.313 241.218 416.08 241.152 415.88L240.952 418H239.542V403.14H241.402V409.3C241.488 409.127 241.618 408.937 241.792 408.73C241.972 408.523 242.202 408.323 242.482 408.13C242.762 407.937 243.092 407.777 243.472 407.65C243.858 407.523 244.298 407.46 244.792 407.46C246.085 407.46 247.112 407.91 247.872 408.81C248.638 409.71 249.022 411.037 249.022 412.79C249.022 413.877 248.858 414.827 248.532 415.64C248.205 416.447 247.718 417.077 247.072 417.53C246.425 417.977 245.618 418.2 244.652 418.2ZM244.322 416.78C245.162 416.78 245.845 416.457 246.372 415.81C246.898 415.157 247.162 414.12 247.162 412.7C247.162 411.493 246.915 410.56 246.422 409.9C245.935 409.233 245.222 408.9 244.282 408.9C243.595 408.9 243.042 409.05 242.622 409.35C242.208 409.643 241.902 410.073 241.702 410.64C241.508 411.207 241.408 411.893 241.402 412.7C241.402 414.147 241.625 415.19 242.072 415.83C242.525 416.463 243.275 416.78 244.322 416.78ZM252.756 413.26C252.756 413.913 252.863 414.507 253.076 415.04C253.296 415.567 253.626 415.987 254.066 416.3C254.513 416.613 255.07 416.77 255.736 416.77C256.396 416.77 256.963 416.617 257.436 416.31C257.916 416.003 258.223 415.56 258.356 414.98H260.106C259.98 415.68 259.7 416.27 259.266 416.75C258.833 417.23 258.31 417.593 257.696 417.84C257.083 418.08 256.443 418.2 255.776 418.2C254.81 418.2 253.96 417.99 253.226 417.57C252.493 417.15 251.92 416.547 251.506 415.76C251.093 414.973 250.886 414.03 250.886 412.93C250.886 411.843 251.073 410.89 251.446 410.07C251.82 409.25 252.36 408.61 253.066 408.15C253.78 407.69 254.636 407.46 255.636 407.46C256.61 407.46 257.433 407.67 258.106 408.09C258.78 408.51 259.29 409.103 259.636 409.87C259.99 410.63 260.166 411.533 260.166 412.58V413.26H252.756ZM252.766 412.01H258.386C258.386 411.417 258.286 410.883 258.086 410.41C257.886 409.93 257.58 409.553 257.166 409.28C256.76 409 256.246 408.86 255.626 408.86C254.98 408.86 254.443 409.017 254.016 409.33C253.596 409.637 253.28 410.033 253.066 410.52C252.86 411 252.76 411.497 252.766 412.01ZM264.026 413.26C264.026 413.913 264.132 414.507 264.346 415.04C264.566 415.567 264.896 415.987 265.336 416.3C265.782 416.613 266.339 416.77 267.006 416.77C267.666 416.77 268.232 416.617 268.706 416.31C269.186 416.003 269.492 415.56 269.626 414.98H271.376C271.249 415.68 270.969 416.27 270.536 416.75C270.102 417.23 269.579 417.593 268.966 417.84C268.352 418.08 267.712 418.2 267.046 418.2C266.079 418.2 265.229 417.99 264.496 417.57C263.762 417.15 263.189 416.547 262.776 415.76C262.362 414.973 262.156 414.03 262.156 412.93C262.156 411.843 262.342 410.89 262.716 410.07C263.089 409.25 263.629 408.61 264.336 408.15C265.049 407.69 265.906 407.46 266.906 407.46C267.879 407.46 268.702 407.67 269.376 408.09C270.049 408.51 270.559 409.103 270.906 409.87C271.259 410.63 271.436 411.533 271.436 412.58V413.26H264.026ZM264.036 412.01H269.656C269.656 411.417 269.556 410.883 269.356 410.41C269.156 409.93 268.849 409.553 268.436 409.28C268.029 409 267.516 408.86 266.896 408.86C266.249 408.86 265.712 409.017 265.286 409.33C264.866 409.637 264.549 410.033 264.336 410.52C264.129 411 264.029 411.497 264.036 412.01ZM273.975 418V407.66H275.765V409.16C275.932 408.873 276.162 408.603 276.455 408.35C276.755 408.097 277.115 407.893 277.535 407.74C277.962 407.587 278.452 407.51 279.005 407.51C279.659 407.51 280.259 407.64 280.805 407.9C281.359 408.16 281.799 408.567 282.125 409.12C282.459 409.667 282.625 410.373 282.625 411.24V418H280.775V411.42C280.775 410.613 280.562 410.017 280.135 409.63C279.715 409.237 279.169 409.04 278.495 409.04C278.029 409.04 277.592 409.117 277.185 409.27C276.779 409.417 276.449 409.643 276.195 409.95C275.942 410.25 275.815 410.63 275.815 411.09V418H273.975ZM290.128 421.22V407.66H291.968L291.988 409.46C292.108 409.247 292.261 409.023 292.448 408.79C292.641 408.557 292.874 408.34 293.148 408.14C293.428 407.94 293.751 407.777 294.118 407.65C294.491 407.523 294.914 407.46 295.388 407.46C296.214 407.46 296.941 407.65 297.568 408.03C298.201 408.403 298.694 408.977 299.048 409.75C299.401 410.523 299.578 411.503 299.578 412.69C299.578 413.877 299.404 414.88 299.058 415.7C298.718 416.513 298.224 417.133 297.578 417.56C296.931 417.987 296.151 418.2 295.238 418.2C294.778 418.2 294.368 418.133 294.008 418C293.654 417.873 293.344 417.707 293.078 417.5C292.818 417.287 292.598 417.06 292.418 416.82C292.244 416.58 292.101 416.35 291.988 416.13V421.22H290.128ZM294.888 416.76C295.741 416.76 296.438 416.437 296.978 415.79C297.518 415.137 297.788 414.123 297.788 412.75C297.788 411.57 297.541 410.633 297.048 409.94C296.554 409.247 295.834 408.9 294.888 408.9C293.928 408.9 293.201 409.257 292.708 409.97C292.214 410.677 291.968 411.603 291.968 412.75C291.968 413.49 292.078 414.163 292.298 414.77C292.518 415.377 292.844 415.86 293.278 416.22C293.711 416.58 294.248 416.76 294.888 416.76ZM302.003 418V407.66H303.763V409.65C303.936 409.157 304.179 408.75 304.493 408.43C304.806 408.103 305.163 407.86 305.563 407.7C305.969 407.54 306.389 407.46 306.823 407.46C306.976 407.46 307.126 407.47 307.273 407.49C307.419 407.51 307.533 407.543 307.613 407.59V409.38C307.513 409.333 307.383 409.303 307.223 409.29C307.069 409.27 306.939 409.26 306.833 409.26C306.419 409.233 306.033 409.26 305.673 409.34C305.313 409.413 304.996 409.543 304.723 409.73C304.449 409.917 304.233 410.163 304.073 410.47C303.919 410.77 303.843 411.137 303.843 411.57V418H302.003ZM313.632 418.2C312.679 418.2 311.846 417.997 311.132 417.59C310.419 417.177 309.866 416.573 309.472 415.78C309.079 414.987 308.882 414.017 308.882 412.87C308.882 411.79 309.066 410.843 309.432 410.03C309.799 409.217 310.336 408.587 311.042 408.14C311.756 407.687 312.619 407.46 313.632 407.46C314.586 407.46 315.412 407.67 316.112 408.09C316.819 408.503 317.366 409.113 317.752 409.92C318.139 410.727 318.332 411.71 318.332 412.87C318.332 413.923 318.152 414.85 317.792 415.65C317.439 416.45 316.912 417.077 316.212 417.53C315.519 417.977 314.659 418.2 313.632 418.2ZM313.632 416.74C314.252 416.74 314.776 416.583 315.202 416.27C315.629 415.957 315.952 415.507 316.172 414.92C316.392 414.333 316.502 413.637 316.502 412.83C316.502 412.09 316.406 411.427 316.212 410.84C316.019 410.247 315.709 409.777 315.282 409.43C314.862 409.083 314.312 408.91 313.632 408.91C313.006 408.91 312.476 409.067 312.042 409.38C311.609 409.687 311.279 410.133 311.052 410.72C310.832 411.307 310.722 412.01 310.722 412.83C310.722 413.557 310.822 414.217 311.022 414.81C311.222 415.403 311.536 415.873 311.962 416.22C312.389 416.567 312.946 416.74 313.632 416.74ZM324.873 407.46C325.613 407.46 326.279 407.603 326.873 407.89C327.466 408.17 327.949 408.57 328.323 409.09C328.703 409.61 328.939 410.223 329.033 410.93H327.393C327.333 410.57 327.193 410.24 326.973 409.94C326.759 409.64 326.476 409.4 326.123 409.22C325.769 409.04 325.356 408.95 324.883 408.95C323.996 408.95 323.276 409.27 322.723 409.91C322.169 410.55 321.893 411.53 321.893 412.85C321.893 414.043 322.146 415 322.653 415.72C323.166 416.433 323.919 416.79 324.913 416.79C325.386 416.79 325.796 416.7 326.143 416.52C326.496 416.333 326.779 416.09 326.993 415.79C327.206 415.483 327.343 415.157 327.403 414.81H329.013C328.926 415.503 328.693 416.103 328.313 416.61C327.933 417.117 327.446 417.51 326.853 417.79C326.266 418.063 325.606 418.2 324.873 418.2C323.946 418.2 323.123 417.997 322.403 417.59C321.689 417.183 321.129 416.583 320.723 415.79C320.316 414.997 320.113 414.023 320.113 412.87C320.113 411.79 320.296 410.847 320.663 410.04C321.036 409.227 321.576 408.593 322.283 408.14C322.996 407.687 323.859 407.46 324.873 407.46ZM332.854 413.26C332.854 413.913 332.961 414.507 333.174 415.04C333.394 415.567 333.724 415.987 334.164 416.3C334.611 416.613 335.167 416.77 335.834 416.77C336.494 416.77 337.061 416.617 337.534 416.31C338.014 416.003 338.321 415.56 338.454 414.98H340.204C340.077 415.68 339.797 416.27 339.364 416.75C338.931 417.23 338.407 417.593 337.794 417.84C337.181 418.08 336.541 418.2 335.874 418.2C334.907 418.2 334.057 417.99 333.324 417.57C332.591 417.15 332.017 416.547 331.604 415.76C331.191 414.973 330.984 414.03 330.984 412.93C330.984 411.843 331.171 410.89 331.544 410.07C331.917 409.25 332.457 408.61 333.164 408.15C333.877 407.69 334.734 407.46 335.734 407.46C336.707 407.46 337.531 407.67 338.204 408.09C338.877 408.51 339.387 409.103 339.734 409.87C340.087 410.63 340.264 411.533 340.264 412.58V413.26H332.854ZM332.864 412.01H338.484C338.484 411.417 338.384 410.883 338.184 410.41C337.984 409.93 337.677 409.553 337.264 409.28C336.857 409 336.344 408.86 335.724 408.86C335.077 408.86 334.541 409.017 334.114 409.33C333.694 409.637 333.377 410.033 333.164 410.52C332.957 411 332.857 411.497 332.864 412.01ZM346.395 418.2C345.675 418.2 345.005 418.09 344.385 417.87C343.772 417.643 343.262 417.293 342.855 416.82C342.449 416.34 342.192 415.73 342.085 414.99H343.765C343.859 415.397 344.025 415.737 344.265 416.01C344.512 416.277 344.819 416.48 345.185 416.62C345.552 416.753 345.952 416.82 346.385 416.82C347.079 416.82 347.639 416.69 348.065 416.43C348.492 416.17 348.705 415.77 348.705 415.23C348.705 414.85 348.592 414.547 348.365 414.32C348.145 414.087 347.802 413.917 347.335 413.81L345.195 413.28C344.362 413.08 343.695 412.767 343.195 412.34C342.695 411.913 342.445 411.317 342.445 410.55C342.439 409.943 342.582 409.41 342.875 408.95C343.169 408.49 343.609 408.127 344.195 407.86C344.782 407.593 345.512 407.46 346.385 407.46C347.505 407.46 348.409 407.713 349.095 408.22C349.789 408.72 350.149 409.457 350.175 410.43H348.545C348.479 409.937 348.255 409.547 347.875 409.26C347.502 408.967 346.999 408.82 346.365 408.82C345.705 408.82 345.169 408.953 344.755 409.22C344.342 409.48 344.135 409.887 344.135 410.44C344.135 410.807 344.282 411.097 344.575 411.31C344.869 411.517 345.302 411.69 345.875 411.83L347.945 412.35C348.425 412.477 348.819 412.643 349.125 412.85C349.439 413.057 349.685 413.287 349.865 413.54C350.052 413.793 350.182 414.06 350.255 414.34C350.335 414.613 350.375 414.877 350.375 415.13C350.375 415.763 350.215 416.31 349.895 416.77C349.582 417.223 349.129 417.577 348.535 417.83C347.949 418.077 347.235 418.2 346.395 418.2ZM356.454 418.2C355.734 418.2 355.064 418.09 354.444 417.87C353.831 417.643 353.321 417.293 352.914 416.82C352.507 416.34 352.251 415.73 352.144 414.99H353.824C353.917 415.397 354.084 415.737 354.324 416.01C354.571 416.277 354.877 416.48 355.244 416.62C355.611 416.753 356.011 416.82 356.444 416.82C357.137 416.82 357.697 416.69 358.124 416.43C358.551 416.17 358.764 415.77 358.764 415.23C358.764 414.85 358.651 414.547 358.424 414.32C358.204 414.087 357.861 413.917 357.394 413.81L355.254 413.28C354.421 413.08 353.754 412.767 353.254 412.34C352.754 411.913 352.504 411.317 352.504 410.55C352.497 409.943 352.641 409.41 352.934 408.95C353.227 408.49 353.667 408.127 354.254 407.86C354.841 407.593 355.571 407.46 356.444 407.46C357.564 407.46 358.467 407.713 359.154 408.22C359.847 408.72 360.207 409.457 360.234 410.43H358.604C358.537 409.937 358.314 409.547 357.934 409.26C357.561 408.967 357.057 408.82 356.424 408.82C355.764 408.82 355.227 408.953 354.814 409.22C354.401 409.48 354.194 409.887 354.194 410.44C354.194 410.807 354.341 411.097 354.634 411.31C354.927 411.517 355.361 411.69 355.934 411.83L358.004 412.35C358.484 412.477 358.877 412.643 359.184 412.85C359.497 413.057 359.744 413.287 359.924 413.54C360.111 413.793 360.241 414.06 360.314 414.34C360.394 414.613 360.434 414.877 360.434 415.13C360.434 415.763 360.274 416.31 359.954 416.77C359.641 417.223 359.187 417.577 358.594 417.83C358.007 418.077 357.294 418.2 356.454 418.2ZM364.338 413.26C364.338 413.913 364.445 414.507 364.658 415.04C364.878 415.567 365.208 415.987 365.648 416.3C366.095 416.613 366.652 416.77 367.318 416.77C367.978 416.77 368.545 416.617 369.018 416.31C369.498 416.003 369.805 415.56 369.938 414.98H371.688C371.562 415.68 371.282 416.27 370.848 416.75C370.415 417.23 369.892 417.593 369.278 417.84C368.665 418.08 368.025 418.2 367.358 418.2C366.392 418.2 365.542 417.99 364.808 417.57C364.075 417.15 363.502 416.547 363.088 415.76C362.675 414.973 362.468 414.03 362.468 412.93C362.468 411.843 362.655 410.89 363.028 410.07C363.402 409.25 363.942 408.61 364.648 408.15C365.362 407.69 366.218 407.46 367.218 407.46C368.192 407.46 369.015 407.67 369.688 408.09C370.362 408.51 370.872 409.103 371.218 409.87C371.572 410.63 371.748 411.533 371.748 412.58V413.26H364.338ZM364.348 412.01H369.968C369.968 411.417 369.868 410.883 369.668 410.41C369.468 409.93 369.162 409.553 368.748 409.28C368.342 409 367.828 408.86 367.208 408.86C366.562 408.86 366.025 409.017 365.598 409.33C365.178 409.637 364.862 410.033 364.648 410.52C364.442 411 364.342 411.497 364.348 412.01ZM378.018 418.2C376.678 418.2 375.614 417.74 374.828 416.82C374.041 415.9 373.648 414.557 373.648 412.79C373.648 411.717 373.804 410.78 374.118 409.98C374.438 409.18 374.911 408.56 375.538 408.12C376.164 407.68 376.944 407.46 377.878 407.46C378.371 407.46 378.808 407.523 379.188 407.65C379.574 407.777 379.908 407.937 380.188 408.13C380.468 408.323 380.694 408.523 380.868 408.73C381.048 408.937 381.181 409.127 381.268 409.3V403.14H383.128V418H381.718L381.518 415.88C381.451 416.08 381.344 416.313 381.198 416.58C381.051 416.84 380.844 417.097 380.578 417.35C380.311 417.597 379.968 417.8 379.548 417.96C379.134 418.12 378.624 418.2 378.018 418.2ZM378.348 416.78C379.394 416.78 380.141 416.463 380.588 415.83C381.041 415.19 381.268 414.147 381.268 412.7C381.261 411.893 381.158 411.207 380.958 410.64C380.764 410.073 380.458 409.643 380.038 409.35C379.624 409.05 379.074 408.9 378.388 408.9C377.534 408.9 376.841 409.203 376.308 409.81C375.774 410.417 375.508 411.38 375.508 412.7C375.508 413.993 375.748 414.997 376.228 415.71C376.714 416.423 377.421 416.78 378.348 416.78ZM385.752 418V415.64H387.952V418H385.752ZM394.097 405.24V403.54H405.037V405.24H400.627V418H398.767V405.24H394.097ZM407.042 418V403.14H408.842V409.18C409.015 408.893 409.248 408.627 409.542 408.38C409.835 408.127 410.192 407.923 410.612 407.77C411.032 407.61 411.518 407.53 412.072 407.53C412.745 407.53 413.355 407.657 413.902 407.91C414.448 408.157 414.882 408.51 415.202 408.97C415.522 409.43 415.682 409.977 415.682 410.61V418H413.832V410.98C413.832 410.36 413.618 409.883 413.192 409.55C412.772 409.21 412.222 409.04 411.542 409.04C411.082 409.04 410.648 409.117 410.242 409.27C409.835 409.417 409.505 409.643 409.252 409.95C409.005 410.25 408.882 410.633 408.882 411.1V418H407.042ZM419.885 413.26C419.885 413.913 419.992 414.507 420.205 415.04C420.425 415.567 420.755 415.987 421.195 416.3C421.642 416.613 422.198 416.77 422.865 416.77C423.525 416.77 424.092 416.617 424.565 416.31C425.045 416.003 425.352 415.56 425.485 414.98H427.235C427.108 415.68 426.828 416.27 426.395 416.75C425.962 417.23 425.438 417.593 424.825 417.84C424.212 418.08 423.572 418.2 422.905 418.2C421.938 418.2 421.088 417.99 420.355 417.57C419.622 417.15 419.048 416.547 418.635 415.76C418.222 414.973 418.015 414.03 418.015 412.93C418.015 411.843 418.202 410.89 418.575 410.07C418.948 409.25 419.488 408.61 420.195 408.15C420.908 407.69 421.765 407.46 422.765 407.46C423.738 407.46 424.562 407.67 425.235 408.09C425.908 408.51 426.418 409.103 426.765 409.87C427.118 410.63 427.295 411.533 427.295 412.58V413.26H419.885ZM419.895 412.01H425.515C425.515 411.417 425.415 410.883 425.215 410.41C425.015 409.93 424.708 409.553 424.295 409.28C423.888 409 423.375 408.86 422.755 408.86C422.108 408.86 421.572 409.017 421.145 409.33C420.725 409.637 420.408 410.033 420.195 410.52C419.988 411 419.888 411.497 419.895 412.01ZM82.92 437.01H80.59V443.44C80.59 443.807 80.6267 444.077 80.7 444.25C80.78 444.417 80.91 444.523 81.09 444.57C81.2767 444.617 81.53 444.64 81.85 444.64H82.98V445.88C82.8533 445.927 82.66 445.967 82.4 446C82.1467 446.033 81.83 446.05 81.45 446.05C80.7367 446.05 80.1833 445.953 79.79 445.76C79.3967 445.567 79.12 445.28 78.96 444.9C78.8067 444.52 78.73 444.053 78.73 443.5V437.01H77.05V435.66H78.78L79.23 432.65H80.59V435.65H82.92V437.01ZM89.4134 446.2C88.4601 446.2 87.6268 445.997 86.9134 445.59C86.2001 445.177 85.6468 444.573 85.2534 443.78C84.8601 442.987 84.6634 442.017 84.6634 440.87C84.6634 439.79 84.8468 438.843 85.2134 438.03C85.5801 437.217 86.1168 436.587 86.8234 436.14C87.5368 435.687 88.4001 435.46 89.4134 435.46C90.3668 435.46 91.1934 435.67 91.8934 436.09C92.6001 436.503 93.1468 437.113 93.5334 437.92C93.9201 438.727 94.1134 439.71 94.1134 440.87C94.1134 441.923 93.9334 442.85 93.5734 443.65C93.2201 444.45 92.6934 445.077 91.9934 445.53C91.3001 445.977 90.4401 446.2 89.4134 446.2ZM89.4134 444.74C90.0334 444.74 90.5568 444.583 90.9834 444.27C91.4101 443.957 91.7334 443.507 91.9534 442.92C92.1734 442.333 92.2834 441.637 92.2834 440.83C92.2834 440.09 92.1868 439.427 91.9934 438.84C91.8001 438.247 91.4901 437.777 91.0634 437.43C90.6434 437.083 90.0934 436.91 89.4134 436.91C88.7868 436.91 88.2568 437.067 87.8234 437.38C87.3901 437.687 87.0601 438.133 86.8334 438.72C86.6134 439.307 86.5034 440.01 86.5034 440.83C86.5034 441.557 86.6034 442.217 86.8034 442.81C87.0034 443.403 87.3168 443.873 87.7434 444.22C88.1701 444.567 88.7268 444.74 89.4134 444.74ZM101.455 437.01H99.1252V443.44C99.1252 443.807 99.1618 444.077 99.2352 444.25C99.3152 444.417 99.4452 444.523 99.6252 444.57C99.8118 444.617 100.065 444.64 100.385 444.64H101.515V445.88C101.388 445.927 101.195 445.967 100.935 446C100.682 446.033 100.365 446.05 99.9852 446.05C99.2718 446.05 98.7185 445.953 98.3252 445.76C97.9318 445.567 97.6552 445.28 97.4952 444.9C97.3418 444.52 97.2652 444.053 97.2652 443.5V437.01H95.5852V435.66H97.3152L97.7652 432.65H99.1252V435.65H101.455V437.01ZM106.894 446.2C106.227 446.2 105.637 446.083 105.124 445.85C104.611 445.61 104.207 445.267 103.914 444.82C103.627 444.373 103.484 443.833 103.484 443.2C103.484 442.053 103.884 441.2 104.684 440.64C105.484 440.08 106.767 439.78 108.534 439.74L110.384 439.69V438.88C110.384 438.247 110.194 437.747 109.814 437.38C109.434 437.007 108.844 436.82 108.044 436.82C107.451 436.827 106.927 436.967 106.474 437.24C106.027 437.513 105.737 437.96 105.604 438.58H103.974C104.014 437.907 104.204 437.34 104.544 436.88C104.884 436.413 105.357 436.06 105.964 435.82C106.577 435.58 107.301 435.46 108.134 435.46C109.034 435.46 109.781 435.587 110.374 435.84C110.974 436.093 111.421 436.467 111.714 436.96C112.014 437.453 112.164 438.06 112.164 438.78V446H110.584L110.454 444.06C110.054 444.867 109.544 445.427 108.924 445.74C108.311 446.047 107.634 446.2 106.894 446.2ZM107.454 444.87C107.801 444.87 108.144 444.807 108.484 444.68C108.831 444.553 109.147 444.383 109.434 444.17C109.721 443.95 109.947 443.707 110.114 443.44C110.287 443.167 110.377 442.887 110.384 442.6V440.83L108.844 440.86C108.057 440.873 107.397 440.953 106.864 441.1C106.337 441.247 105.941 441.477 105.674 441.79C105.414 442.103 105.284 442.513 105.284 443.02C105.284 443.6 105.484 444.053 105.884 444.38C106.291 444.707 106.814 444.87 107.454 444.87ZM117.933 446.13C117.373 446.13 116.92 446.053 116.573 445.9C116.233 445.747 115.97 445.54 115.783 445.28C115.603 445.02 115.48 444.723 115.413 444.39C115.353 444.05 115.323 443.7 115.323 443.34V431.14H117.143V443.16C117.143 443.68 117.243 444.07 117.443 444.33C117.65 444.59 117.936 444.733 118.303 444.76L118.863 444.77V445.97C118.71 446.017 118.55 446.053 118.383 446.08C118.216 446.113 118.066 446.13 117.933 446.13ZM128.749 446.2C128.083 446.2 127.493 446.083 126.979 445.85C126.466 445.61 126.063 445.267 125.769 444.82C125.483 444.373 125.339 443.833 125.339 443.2C125.339 442.053 125.739 441.2 126.539 440.64C127.339 440.08 128.623 439.78 130.389 439.74L132.239 439.69V438.88C132.239 438.247 132.049 437.747 131.669 437.38C131.289 437.007 130.699 436.82 129.899 436.82C129.306 436.827 128.783 436.967 128.329 437.24C127.883 437.513 127.593 437.96 127.459 438.58H125.829C125.869 437.907 126.059 437.34 126.399 436.88C126.739 436.413 127.213 436.06 127.819 435.82C128.433 435.58 129.156 435.46 129.989 435.46C130.889 435.46 131.636 435.587 132.229 435.84C132.829 436.093 133.276 436.467 133.569 436.96C133.869 437.453 134.019 438.06 134.019 438.78V446H132.439L132.309 444.06C131.909 444.867 131.399 445.427 130.779 445.74C130.166 446.047 129.489 446.2 128.749 446.2ZM129.309 444.87C129.656 444.87 129.999 444.807 130.339 444.68C130.686 444.553 131.003 444.383 131.289 444.17C131.576 443.95 131.803 443.707 131.969 443.44C132.143 443.167 132.233 442.887 132.239 442.6V440.83L130.699 440.86C129.913 440.873 129.253 440.953 128.719 441.1C128.193 441.247 127.796 441.477 127.529 441.79C127.269 442.103 127.139 442.513 127.139 443.02C127.139 443.6 127.339 444.053 127.739 444.38C128.146 444.707 128.669 444.87 129.309 444.87ZM137.178 446V435.66H138.958V437.16C139.245 436.707 139.638 436.31 140.138 435.97C140.638 435.63 141.288 435.46 142.088 435.46C142.462 435.46 142.842 435.523 143.228 435.65C143.622 435.777 143.982 435.967 144.308 436.22C144.635 436.473 144.888 436.783 145.068 437.15C145.388 436.643 145.822 436.237 146.368 435.93C146.915 435.617 147.532 435.46 148.218 435.46C148.578 435.46 148.955 435.517 149.348 435.63C149.742 435.737 150.105 435.93 150.438 436.21C150.778 436.483 151.055 436.867 151.268 437.36C151.482 437.847 151.588 438.473 151.588 439.24V446H149.728V439.42C149.728 438.793 149.628 438.31 149.428 437.97C149.228 437.623 148.965 437.38 148.638 437.24C148.318 437.1 147.975 437.03 147.608 437.03C147.288 437.03 146.948 437.093 146.588 437.22C146.228 437.347 145.922 437.56 145.668 437.86C145.415 438.16 145.288 438.57 145.288 439.09V446H143.448V438.88C143.448 438.473 143.338 438.133 143.118 437.86C142.905 437.587 142.635 437.38 142.308 437.24C141.988 437.1 141.668 437.03 141.348 437.03C140.995 437.03 140.638 437.1 140.278 437.24C139.925 437.38 139.625 437.603 139.378 437.91C139.138 438.21 139.018 438.603 139.018 439.09V446H137.178ZM158.593 446.2C157.64 446.2 156.806 445.997 156.093 445.59C155.38 445.177 154.826 444.573 154.433 443.78C154.04 442.987 153.843 442.017 153.843 440.87C153.843 439.79 154.026 438.843 154.393 438.03C154.76 437.217 155.296 436.587 156.003 436.14C156.716 435.687 157.58 435.46 158.593 435.46C159.546 435.46 160.373 435.67 161.073 436.09C161.78 436.503 162.326 437.113 162.713 437.92C163.1 438.727 163.293 439.71 163.293 440.87C163.293 441.923 163.113 442.85 162.753 443.65C162.4 444.45 161.873 445.077 161.173 445.53C160.48 445.977 159.62 446.2 158.593 446.2ZM158.593 444.74C159.213 444.74 159.736 444.583 160.163 444.27C160.59 443.957 160.913 443.507 161.133 442.92C161.353 442.333 161.463 441.637 161.463 440.83C161.463 440.09 161.366 439.427 161.173 438.84C160.98 438.247 160.67 437.777 160.243 437.43C159.823 437.083 159.273 436.91 158.593 436.91C157.966 436.91 157.436 437.067 157.003 437.38C156.57 437.687 156.24 438.133 156.013 438.72C155.793 439.307 155.683 440.01 155.683 440.83C155.683 441.557 155.783 442.217 155.983 442.81C156.183 443.403 156.496 443.873 156.923 444.22C157.35 444.567 157.906 444.74 158.593 444.74ZM169.338 446.2C168.798 446.193 168.288 446.117 167.808 445.97C167.334 445.817 166.914 445.593 166.548 445.3C166.181 445.007 165.891 444.643 165.678 444.21C165.471 443.77 165.368 443.26 165.368 442.68V435.66H167.218V442.49C167.218 443.163 167.424 443.71 167.838 444.13C168.258 444.55 168.888 444.76 169.728 444.76C170.488 444.76 171.098 444.563 171.558 444.17C172.024 443.77 172.258 443.177 172.258 442.39V435.66H174.098V446H172.628L172.438 444.02C172.311 444.54 172.094 444.96 171.788 445.28C171.488 445.6 171.124 445.837 170.698 445.99C170.278 446.137 169.824 446.207 169.338 446.2ZM177.12 446V435.66H178.91V437.16C179.077 436.873 179.307 436.603 179.6 436.35C179.9 436.097 180.26 435.893 180.68 435.74C181.107 435.587 181.597 435.51 182.15 435.51C182.803 435.51 183.403 435.64 183.95 435.9C184.503 436.16 184.943 436.567 185.27 437.12C185.603 437.667 185.77 438.373 185.77 439.24V446H183.92V439.42C183.92 438.613 183.707 438.017 183.28 437.63C182.86 437.237 182.313 437.04 181.64 437.04C181.173 437.04 180.737 437.117 180.33 437.27C179.923 437.417 179.593 437.643 179.34 437.95C179.087 438.25 178.96 438.63 178.96 439.09V446H177.12ZM193.428 437.01H191.098V443.44C191.098 443.807 191.134 444.077 191.208 444.25C191.288 444.417 191.418 444.523 191.598 444.57C191.784 444.617 192.038 444.64 192.358 444.64H193.488V445.88C193.361 445.927 193.168 445.967 192.908 446C192.654 446.033 192.338 446.05 191.958 446.05C191.244 446.05 190.691 445.953 190.298 445.76C189.904 445.567 189.628 445.28 189.468 444.9C189.314 444.52 189.238 444.053 189.238 443.5V437.01H187.558V435.66H189.288L189.738 432.65H191.098V435.65H193.428V437.01ZM204.17 446.2C202.83 446.2 201.767 445.74 200.98 444.82C200.193 443.9 199.8 442.557 199.8 440.79C199.8 439.717 199.957 438.78 200.27 437.98C200.59 437.18 201.063 436.56 201.69 436.12C202.317 435.68 203.097 435.46 204.03 435.46C204.523 435.46 204.96 435.523 205.34 435.65C205.727 435.777 206.06 435.937 206.34 436.13C206.62 436.323 206.847 436.523 207.02 436.73C207.2 436.937 207.333 437.127 207.42 437.3V431.14H209.28V446H207.87L207.67 443.88C207.603 444.08 207.497 444.313 207.35 444.58C207.203 444.84 206.997 445.097 206.73 445.35C206.463 445.597 206.12 445.8 205.7 445.96C205.287 446.12 204.777 446.2 204.17 446.2ZM204.5 444.78C205.547 444.78 206.293 444.463 206.74 443.83C207.193 443.19 207.42 442.147 207.42 440.7C207.413 439.893 207.31 439.207 207.11 438.64C206.917 438.073 206.61 437.643 206.19 437.35C205.777 437.05 205.227 436.9 204.54 436.9C203.687 436.9 202.993 437.203 202.46 437.81C201.927 438.417 201.66 439.38 201.66 440.7C201.66 441.993 201.9 442.997 202.38 443.71C202.867 444.423 203.573 444.78 204.5 444.78ZM213.655 441.26C213.655 441.913 213.761 442.507 213.975 443.04C214.195 443.567 214.525 443.987 214.965 444.3C215.411 444.613 215.968 444.77 216.635 444.77C217.295 444.77 217.861 444.617 218.335 444.31C218.815 444.003 219.121 443.56 219.255 442.98H221.005C220.878 443.68 220.598 444.27 220.165 444.75C219.731 445.23 219.208 445.593 218.595 445.84C217.981 446.08 217.341 446.2 216.675 446.2C215.708 446.2 214.858 445.99 214.125 445.57C213.391 445.15 212.818 444.547 212.405 443.76C211.991 442.973 211.785 442.03 211.785 440.93C211.785 439.843 211.971 438.89 212.345 438.07C212.718 437.25 213.258 436.61 213.965 436.15C214.678 435.69 215.535 435.46 216.535 435.46C217.508 435.46 218.331 435.67 219.005 436.09C219.678 436.51 220.188 437.103 220.535 437.87C220.888 438.63 221.065 439.533 221.065 440.58V441.26H213.655ZM213.665 440.01H219.285C219.285 439.417 219.185 438.883 218.985 438.41C218.785 437.93 218.478 437.553 218.065 437.28C217.658 437 217.145 436.86 216.525 436.86C215.878 436.86 215.341 437.017 214.915 437.33C214.495 437.637 214.178 438.033 213.965 438.52C213.758 439 213.658 439.497 213.665 440.01ZM227.334 446.2C225.994 446.2 224.931 445.74 224.144 444.82C223.358 443.9 222.964 442.557 222.964 440.79C222.964 439.717 223.121 438.78 223.434 437.98C223.754 437.18 224.228 436.56 224.854 436.12C225.481 435.68 226.261 435.46 227.194 435.46C227.688 435.46 228.124 435.523 228.504 435.65C228.891 435.777 229.224 435.937 229.504 436.13C229.784 436.323 230.011 436.523 230.184 436.73C230.364 436.937 230.498 437.127 230.584 437.3V431.14H232.444V446H231.034L230.834 443.88C230.768 444.08 230.661 444.313 230.514 444.58C230.368 444.84 230.161 445.097 229.894 445.35C229.628 445.597 229.284 445.8 228.864 445.96C228.451 446.12 227.941 446.2 227.334 446.2ZM227.664 444.78C228.711 444.78 229.458 444.463 229.904 443.83C230.358 443.19 230.584 442.147 230.584 440.7C230.578 439.893 230.474 439.207 230.274 438.64C230.081 438.073 229.774 437.643 229.354 437.35C228.941 437.05 228.391 436.9 227.704 436.9C226.851 436.9 226.158 437.203 225.624 437.81C225.091 438.417 224.824 439.38 224.824 440.7C224.824 441.993 225.064 442.997 225.544 443.71C226.031 444.423 226.738 444.78 227.664 444.78ZM239.299 446.2C238.759 446.193 238.249 446.117 237.769 445.97C237.295 445.817 236.875 445.593 236.509 445.3C236.142 445.007 235.852 444.643 235.639 444.21C235.432 443.77 235.329 443.26 235.329 442.68V435.66H237.179V442.49C237.179 443.163 237.385 443.71 237.799 444.13C238.219 444.55 238.849 444.76 239.689 444.76C240.449 444.76 241.059 444.563 241.519 444.17C241.985 443.77 242.219 443.177 242.219 442.39V435.66H244.059V446H242.589L242.399 444.02C242.272 444.54 242.055 444.96 241.749 445.28C241.449 445.6 241.085 445.837 240.659 445.99C240.239 446.137 239.785 446.207 239.299 446.2ZM251.064 435.46C251.804 435.46 252.471 435.603 253.064 435.89C253.657 436.17 254.141 436.57 254.514 437.09C254.894 437.61 255.131 438.223 255.224 438.93H253.584C253.524 438.57 253.384 438.24 253.164 437.94C252.951 437.64 252.667 437.4 252.314 437.22C251.961 437.04 251.547 436.95 251.074 436.95C250.187 436.95 249.467 437.27 248.914 437.91C248.361 438.55 248.084 439.53 248.084 440.85C248.084 442.043 248.337 443 248.844 443.72C249.357 444.433 250.111 444.79 251.104 444.79C251.577 444.79 251.987 444.7 252.334 444.52C252.687 444.333 252.971 444.09 253.184 443.79C253.397 443.483 253.534 443.157 253.594 442.81H255.204C255.117 443.503 254.884 444.103 254.504 444.61C254.124 445.117 253.637 445.51 253.044 445.79C252.457 446.063 251.797 446.2 251.064 446.2C250.137 446.2 249.314 445.997 248.594 445.59C247.881 445.183 247.321 444.583 246.914 443.79C246.507 442.997 246.304 442.023 246.304 440.87C246.304 439.79 246.487 438.847 246.854 438.04C247.227 437.227 247.767 436.593 248.474 436.14C249.187 435.687 250.051 435.46 251.064 435.46ZM262.647 437.01H260.317V443.44C260.317 443.807 260.353 444.077 260.427 444.25C260.507 444.417 260.637 444.523 260.817 444.57C261.003 444.617 261.257 444.64 261.577 444.64H262.707V445.88C262.58 445.927 262.387 445.967 262.127 446C261.873 446.033 261.557 446.05 261.177 446.05C260.463 446.05 259.91 445.953 259.517 445.76C259.123 445.567 258.847 445.28 258.687 444.9C258.533 444.52 258.457 444.053 258.457 443.5V437.01H256.777V435.66H258.507L258.957 432.65H260.317V435.65H262.647V437.01ZM266.35 441.26C266.35 441.913 266.457 442.507 266.67 443.04C266.89 443.567 267.22 443.987 267.66 444.3C268.107 444.613 268.663 444.77 269.33 444.77C269.99 444.77 270.557 444.617 271.03 444.31C271.51 444.003 271.817 443.56 271.95 442.98H273.7C273.573 443.68 273.293 444.27 272.86 444.75C272.427 445.23 271.903 445.593 271.29 445.84C270.677 446.08 270.037 446.2 269.37 446.2C268.403 446.2 267.553 445.99 266.82 445.57C266.087 445.15 265.513 444.547 265.1 443.76C264.687 442.973 264.48 442.03 264.48 440.93C264.48 439.843 264.667 438.89 265.04 438.07C265.413 437.25 265.953 436.61 266.66 436.15C267.373 435.69 268.23 435.46 269.23 435.46C270.203 435.46 271.027 435.67 271.7 436.09C272.373 436.51 272.883 437.103 273.23 437.87C273.583 438.63 273.76 439.533 273.76 440.58V441.26H266.35ZM266.36 440.01H271.98C271.98 439.417 271.88 438.883 271.68 438.41C271.48 437.93 271.173 437.553 270.76 437.28C270.353 437 269.84 436.86 269.22 436.86C268.573 436.86 268.037 437.017 267.61 437.33C267.19 437.637 266.873 438.033 266.66 438.52C266.453 439 266.353 439.497 266.36 440.01ZM280.03 446.2C278.69 446.2 277.626 445.74 276.84 444.82C276.053 443.9 275.66 442.557 275.66 440.79C275.66 439.717 275.816 438.78 276.13 437.98C276.45 437.18 276.923 436.56 277.55 436.12C278.176 435.68 278.956 435.46 279.89 435.46C280.383 435.46 280.82 435.523 281.2 435.65C281.586 435.777 281.92 435.937 282.2 436.13C282.48 436.323 282.706 436.523 282.88 436.73C283.06 436.937 283.193 437.127 283.28 437.3V431.14H285.14V446H283.73L283.53 443.88C283.463 444.08 283.356 444.313 283.21 444.58C283.063 444.84 282.856 445.097 282.59 445.35C282.323 445.597 281.98 445.8 281.56 445.96C281.146 446.12 280.636 446.2 280.03 446.2ZM280.36 444.78C281.406 444.78 282.153 444.463 282.6 443.83C283.053 443.19 283.28 442.147 283.28 440.7C283.273 439.893 283.17 439.207 282.97 438.64C282.776 438.073 282.47 437.643 282.05 437.35C281.636 437.05 281.086 436.9 280.4 436.9C279.546 436.9 278.853 437.203 278.32 437.81C277.786 438.417 277.52 439.38 277.52 440.7C277.52 441.993 277.76 442.997 278.24 443.71C278.726 444.423 279.433 444.78 280.36 444.78ZM298.643 435.66V437.01H296.133V446H294.273V437.01H292.093V435.66H294.273V434.06C294.273 433.24 294.483 432.617 294.903 432.19C295.323 431.757 295.95 431.54 296.783 431.54H298.733L298.743 432.85H297.193C296.773 432.85 296.487 432.963 296.333 433.19C296.18 433.417 296.103 433.76 296.103 434.22V435.66H298.643ZM300.928 446V435.66H302.688V437.65C302.862 437.157 303.105 436.75 303.418 436.43C303.732 436.103 304.088 435.86 304.488 435.7C304.895 435.54 305.315 435.46 305.748 435.46C305.902 435.46 306.052 435.47 306.198 435.49C306.345 435.51 306.458 435.543 306.538 435.59V437.38C306.438 437.333 306.308 437.303 306.148 437.29C305.995 437.27 305.865 437.26 305.758 437.26C305.345 437.233 304.958 437.26 304.598 437.34C304.238 437.413 303.922 437.543 303.648 437.73C303.375 437.917 303.158 438.163 302.998 438.47C302.845 438.77 302.768 439.137 302.768 439.57V446H300.928ZM312.558 446.2C311.605 446.2 310.771 445.997 310.058 445.59C309.345 445.177 308.791 444.573 308.398 443.78C308.005 442.987 307.808 442.017 307.808 440.87C307.808 439.79 307.991 438.843 308.358 438.03C308.725 437.217 309.261 436.587 309.968 436.14C310.681 435.687 311.545 435.46 312.558 435.46C313.511 435.46 314.338 435.67 315.038 436.09C315.745 436.503 316.291 437.113 316.678 437.92C317.065 438.727 317.258 439.71 317.258 440.87C317.258 441.923 317.078 442.85 316.718 443.65C316.365 444.45 315.838 445.077 315.138 445.53C314.445 445.977 313.585 446.2 312.558 446.2ZM312.558 444.74C313.178 444.74 313.701 444.583 314.128 444.27C314.555 443.957 314.878 443.507 315.098 442.92C315.318 442.333 315.428 441.637 315.428 440.83C315.428 440.09 315.331 439.427 315.138 438.84C314.945 438.247 314.635 437.777 314.208 437.43C313.788 437.083 313.238 436.91 312.558 436.91C311.931 436.91 311.401 437.067 310.968 437.38C310.535 437.687 310.205 438.133 309.978 438.72C309.758 439.307 309.648 440.01 309.648 440.83C309.648 441.557 309.748 442.217 309.948 442.81C310.148 443.403 310.461 443.873 310.888 444.22C311.315 444.567 311.871 444.74 312.558 444.74ZM319.678 446V435.66H321.458V437.16C321.745 436.707 322.138 436.31 322.638 435.97C323.138 435.63 323.788 435.46 324.588 435.46C324.962 435.46 325.342 435.523 325.728 435.65C326.122 435.777 326.482 435.967 326.808 436.22C327.135 436.473 327.388 436.783 327.568 437.15C327.888 436.643 328.322 436.237 328.868 435.93C329.415 435.617 330.032 435.46 330.718 435.46C331.078 435.46 331.455 435.517 331.848 435.63C332.242 435.737 332.605 435.93 332.938 436.21C333.278 436.483 333.555 436.867 333.768 437.36C333.982 437.847 334.088 438.473 334.088 439.24V446H332.228V439.42C332.228 438.793 332.128 438.31 331.928 437.97C331.728 437.623 331.465 437.38 331.138 437.24C330.818 437.1 330.475 437.03 330.108 437.03C329.788 437.03 329.448 437.093 329.088 437.22C328.728 437.347 328.422 437.56 328.168 437.86C327.915 438.16 327.788 438.57 327.788 439.09V446H325.948V438.88C325.948 438.473 325.838 438.133 325.618 437.86C325.405 437.587 325.135 437.38 324.808 437.24C324.488 437.1 324.168 437.03 323.848 437.03C323.495 437.03 323.138 437.1 322.778 437.24C322.425 437.38 322.125 437.603 321.878 437.91C321.638 438.21 321.518 438.603 321.518 439.09V446H319.678ZM342.476 449.3C341.869 449.3 341.452 449.257 341.226 449.17C340.999 449.083 340.886 449.04 340.886 449.04V447.84L341.936 447.86C342.322 447.873 342.642 447.847 342.896 447.78C343.149 447.713 343.352 447.623 343.506 447.51C343.659 447.397 343.776 447.27 343.856 447.13C343.942 446.99 344.012 446.857 344.066 446.73L344.426 445.75L340.386 435.66H342.256L345.306 443.64L348.336 435.66H350.146L345.786 446.78C345.519 447.433 345.219 447.943 344.886 448.31C344.559 448.677 344.192 448.933 343.786 449.08C343.386 449.227 342.949 449.3 342.476 449.3ZM355.859 446.2C354.905 446.2 354.072 445.997 353.359 445.59C352.645 445.177 352.092 444.573 351.699 443.78C351.305 442.987 351.109 442.017 351.109 440.87C351.109 439.79 351.292 438.843 351.659 438.03C352.025 437.217 352.562 436.587 353.269 436.14C353.982 435.687 354.845 435.46 355.859 435.46C356.812 435.46 357.639 435.67 358.339 436.09C359.045 436.503 359.592 437.113 359.979 437.92C360.365 438.727 360.559 439.71 360.559 440.87C360.559 441.923 360.379 442.85 360.019 443.65C359.665 444.45 359.139 445.077 358.439 445.53C357.745 445.977 356.885 446.2 355.859 446.2ZM355.859 444.74C356.479 444.74 357.002 444.583 357.429 444.27C357.855 443.957 358.179 443.507 358.399 442.92C358.619 442.333 358.729 441.637 358.729 440.83C358.729 440.09 358.632 439.427 358.439 438.84C358.245 438.247 357.935 437.777 357.509 437.43C357.089 437.083 356.539 436.91 355.859 436.91C355.232 436.91 354.702 437.067 354.269 437.38C353.835 437.687 353.505 438.133 353.279 438.72C353.059 439.307 352.949 440.01 352.949 440.83C352.949 441.557 353.049 442.217 353.249 442.81C353.449 443.403 353.762 443.873 354.189 444.22C354.615 444.567 355.172 444.74 355.859 444.74ZM366.603 446.2C366.063 446.193 365.553 446.117 365.073 445.97C364.6 445.817 364.18 445.593 363.813 445.3C363.447 445.007 363.157 444.643 362.943 444.21C362.737 443.77 362.633 443.26 362.633 442.68V435.66H364.483V442.49C364.483 443.163 364.69 443.71 365.103 444.13C365.523 444.55 366.153 444.76 366.993 444.76C367.753 444.76 368.363 444.563 368.823 444.17C369.29 443.77 369.523 443.177 369.523 442.39V435.66H371.363V446H369.893L369.703 444.02C369.577 444.54 369.36 444.96 369.053 445.28C368.753 445.6 368.39 445.837 367.963 445.99C367.543 446.137 367.09 446.207 366.603 446.2ZM374.385 446V435.66H376.145V437.65C376.319 437.157 376.562 436.75 376.875 436.43C377.189 436.103 377.545 435.86 377.945 435.7C378.352 435.54 378.772 435.46 379.205 435.46C379.359 435.46 379.509 435.47 379.655 435.49C379.802 435.51 379.915 435.543 379.995 435.59V437.38C379.895 437.333 379.765 437.303 379.605 437.29C379.452 437.27 379.322 437.26 379.215 437.26C378.802 437.233 378.415 437.26 378.055 437.34C377.695 437.413 377.379 437.543 377.105 437.73C376.832 437.917 376.615 438.163 376.455 438.47C376.302 438.77 376.225 439.137 376.225 439.57V446H374.385ZM80.39 474.2C79.7233 474.2 79.1333 474.083 78.62 473.85C78.1067 473.61 77.7033 473.267 77.41 472.82C77.1233 472.373 76.98 471.833 76.98 471.2C76.98 470.053 77.38 469.2 78.18 468.64C78.98 468.08 80.2633 467.78 82.03 467.74L83.88 467.69V466.88C83.88 466.247 83.69 465.747 83.31 465.38C82.93 465.007 82.34 464.82 81.54 464.82C80.9467 464.827 80.4233 464.967 79.97 465.24C79.5233 465.513 79.2333 465.96 79.1 466.58H77.47C77.51 465.907 77.7 465.34 78.04 464.88C78.38 464.413 78.8533 464.06 79.46 463.82C80.0733 463.58 80.7967 463.46 81.63 463.46C82.53 463.46 83.2767 463.587 83.87 463.84C84.47 464.093 84.9167 464.467 85.21 464.96C85.51 465.453 85.66 466.06 85.66 466.78V474H84.08L83.95 472.06C83.55 472.867 83.04 473.427 82.42 473.74C81.8067 474.047 81.13 474.2 80.39 474.2ZM80.95 472.87C81.2967 472.87 81.64 472.807 81.98 472.68C82.3267 472.553 82.6433 472.383 82.93 472.17C83.2167 471.95 83.4433 471.707 83.61 471.44C83.7833 471.167 83.8733 470.887 83.88 470.6V468.83L82.34 468.86C81.5533 468.873 80.8933 468.953 80.36 469.1C79.8333 469.247 79.4367 469.477 79.17 469.79C78.91 470.103 78.78 470.513 78.78 471.02C78.78 471.6 78.98 472.053 79.38 472.38C79.7867 472.707 80.31 472.87 80.95 472.87ZM92.9391 463.46C93.6791 463.46 94.3457 463.603 94.9391 463.89C95.5324 464.17 96.0157 464.57 96.3891 465.09C96.7691 465.61 97.0057 466.223 97.0991 466.93H95.4591C95.3991 466.57 95.2591 466.24 95.0391 465.94C94.8257 465.64 94.5424 465.4 94.1891 465.22C93.8357 465.04 93.4224 464.95 92.9491 464.95C92.0624 464.95 91.3424 465.27 90.7891 465.91C90.2357 466.55 89.9591 467.53 89.9591 468.85C89.9591 470.043 90.2124 471 90.7191 471.72C91.2324 472.433 91.9857 472.79 92.9791 472.79C93.4524 472.79 93.8624 472.7 94.2091 472.52C94.5624 472.333 94.8457 472.09 95.0591 471.79C95.2724 471.483 95.4091 471.157 95.4691 470.81H97.0791C96.9924 471.503 96.7591 472.103 96.3791 472.61C95.9991 473.117 95.5124 473.51 94.9191 473.79C94.3324 474.063 93.6724 474.2 92.9391 474.2C92.0124 474.2 91.1891 473.997 90.4691 473.59C89.7557 473.183 89.1957 472.583 88.7891 471.79C88.3824 470.997 88.1791 470.023 88.1791 468.87C88.1791 467.79 88.3624 466.847 88.7291 466.04C89.1024 465.227 89.6424 464.593 90.3491 464.14C91.0624 463.687 91.9257 463.46 92.9391 463.46ZM103.72 463.46C104.46 463.46 105.127 463.603 105.72 463.89C106.314 464.17 106.797 464.57 107.17 465.09C107.55 465.61 107.787 466.223 107.88 466.93H106.24C106.18 466.57 106.04 466.24 105.82 465.94C105.607 465.64 105.324 465.4 104.97 465.22C104.617 465.04 104.204 464.95 103.73 464.95C102.844 464.95 102.124 465.27 101.57 465.91C101.017 466.55 100.74 467.53 100.74 468.85C100.74 470.043 100.994 471 101.5 471.72C102.014 472.433 102.767 472.79 103.76 472.79C104.234 472.79 104.644 472.7 104.99 472.52C105.344 472.333 105.627 472.09 105.84 471.79C106.054 471.483 106.19 471.157 106.25 470.81H107.86C107.774 471.503 107.54 472.103 107.16 472.61C106.78 473.117 106.294 473.51 105.7 473.79C105.114 474.063 104.454 474.2 103.72 474.2C102.794 474.2 101.97 473.997 101.25 473.59C100.537 473.183 99.977 472.583 99.5703 471.79C99.1636 470.997 98.9603 470.023 98.9603 468.87C98.9603 467.79 99.1436 466.847 99.5103 466.04C99.8836 465.227 100.424 464.593 101.13 464.14C101.844 463.687 102.707 463.46 103.72 463.46ZM114.492 474.2C113.538 474.2 112.705 473.997 111.992 473.59C111.278 473.177 110.725 472.573 110.332 471.78C109.938 470.987 109.742 470.017 109.742 468.87C109.742 467.79 109.925 466.843 110.292 466.03C110.658 465.217 111.195 464.587 111.902 464.14C112.615 463.687 113.478 463.46 114.492 463.46C115.445 463.46 116.272 463.67 116.972 464.09C117.678 464.503 118.225 465.113 118.612 465.92C118.998 466.727 119.192 467.71 119.192 468.87C119.192 469.923 119.012 470.85 118.652 471.65C118.298 472.45 117.772 473.077 117.072 473.53C116.378 473.977 115.518 474.2 114.492 474.2ZM114.492 472.74C115.112 472.74 115.635 472.583 116.062 472.27C116.488 471.957 116.812 471.507 117.032 470.92C117.252 470.333 117.362 469.637 117.362 468.83C117.362 468.09 117.265 467.427 117.072 466.84C116.878 466.247 116.568 465.777 116.142 465.43C115.722 465.083 115.172 464.91 114.492 464.91C113.865 464.91 113.335 465.067 112.902 465.38C112.468 465.687 112.138 466.133 111.912 466.72C111.692 467.307 111.582 468.01 111.582 468.83C111.582 469.557 111.682 470.217 111.882 470.81C112.082 471.403 112.395 471.873 112.822 472.22C113.248 472.567 113.805 472.74 114.492 472.74ZM125.236 474.2C124.696 474.193 124.186 474.117 123.706 473.97C123.233 473.817 122.813 473.593 122.446 473.3C122.08 473.007 121.79 472.643 121.576 472.21C121.37 471.77 121.266 471.26 121.266 470.68V463.66H123.116V470.49C123.116 471.163 123.323 471.71 123.736 472.13C124.156 472.55 124.786 472.76 125.626 472.76C126.386 472.76 126.996 472.563 127.456 472.17C127.923 471.77 128.156 471.177 128.156 470.39V463.66H129.996V474H128.526L128.336 472.02C128.21 472.54 127.993 472.96 127.686 473.28C127.386 473.6 127.023 473.837 126.596 473.99C126.176 474.137 125.723 474.207 125.236 474.2ZM133.018 474V463.66H134.808V465.16C134.975 464.873 135.205 464.603 135.498 464.35C135.798 464.097 136.158 463.893 136.578 463.74C137.005 463.587 137.495 463.51 138.048 463.51C138.702 463.51 139.302 463.64 139.848 463.9C140.402 464.16 140.842 464.567 141.168 465.12C141.502 465.667 141.668 466.373 141.668 467.24V474H139.818V467.42C139.818 466.613 139.605 466.017 139.178 465.63C138.758 465.237 138.212 465.04 137.538 465.04C137.072 465.04 136.635 465.117 136.228 465.27C135.822 465.417 135.492 465.643 135.238 465.95C134.985 466.25 134.858 466.63 134.858 467.09V474H133.018ZM149.326 465.01H146.996V471.44C146.996 471.807 147.033 472.077 147.106 472.25C147.186 472.417 147.316 472.523 147.496 472.57C147.683 472.617 147.936 472.64 148.256 472.64H149.386V473.88C149.26 473.927 149.066 473.967 148.806 474C148.553 474.033 148.236 474.05 147.856 474.05C147.143 474.05 146.59 473.953 146.196 473.76C145.803 473.567 145.526 473.28 145.366 472.9C145.213 472.52 145.136 472.053 145.136 471.5V465.01H143.456V463.66H145.186L145.636 460.65H146.996V463.65H149.326V465.01ZM158.593 463.66V474H156.803V463.66H158.593ZM158.633 459.55V461.47H156.743V459.55H158.633ZM165.516 474.2C164.796 474.2 164.126 474.09 163.506 473.87C162.893 473.643 162.383 473.293 161.976 472.82C161.57 472.34 161.313 471.73 161.206 470.99H162.886C162.98 471.397 163.146 471.737 163.386 472.01C163.633 472.277 163.94 472.48 164.306 472.62C164.673 472.753 165.073 472.82 165.506 472.82C166.2 472.82 166.76 472.69 167.186 472.43C167.613 472.17 167.826 471.77 167.826 471.23C167.826 470.85 167.713 470.547 167.486 470.32C167.266 470.087 166.923 469.917 166.456 469.81L164.316 469.28C163.483 469.08 162.816 468.767 162.316 468.34C161.816 467.913 161.566 467.317 161.566 466.55C161.56 465.943 161.703 465.41 161.996 464.95C162.29 464.49 162.73 464.127 163.316 463.86C163.903 463.593 164.633 463.46 165.506 463.46C166.626 463.46 167.53 463.713 168.216 464.22C168.91 464.72 169.27 465.457 169.296 466.43H167.666C167.6 465.937 167.376 465.547 166.996 465.26C166.623 464.967 166.12 464.82 165.486 464.82C164.826 464.82 164.29 464.953 163.876 465.22C163.463 465.48 163.256 465.887 163.256 466.44C163.256 466.807 163.403 467.097 163.696 467.31C163.99 467.517 164.423 467.69 164.996 467.83L167.066 468.35C167.546 468.477 167.94 468.643 168.246 468.85C168.56 469.057 168.806 469.287 168.986 469.54C169.173 469.793 169.303 470.06 169.376 470.34C169.456 470.613 169.496 470.877 169.496 471.13C169.496 471.763 169.336 472.31 169.016 472.77C168.703 473.223 168.25 473.577 167.656 473.83C167.07 474.077 166.356 474.2 165.516 474.2ZM187.979 468.49C187.979 469.657 187.789 470.67 187.409 471.53C187.029 472.383 186.412 473.043 185.559 473.51C184.712 473.97 183.589 474.2 182.189 474.2C180.782 474.2 179.656 473.967 178.809 473.5C177.962 473.027 177.349 472.357 176.969 471.49C176.596 470.623 176.409 469.59 176.409 468.39V459.54H179.379V468.61C179.379 469.69 179.639 470.48 180.159 470.98C180.679 471.473 181.356 471.72 182.189 471.72C182.742 471.72 183.232 471.613 183.659 471.4C184.086 471.18 184.419 470.843 184.659 470.39C184.906 469.93 185.029 469.337 185.029 468.61V459.54H187.979V468.49ZM196.312 474.2C195.598 474.2 194.898 474.11 194.212 473.93C193.525 473.75 192.898 473.48 192.332 473.12C191.765 472.76 191.295 472.31 190.922 471.77C190.555 471.23 190.335 470.597 190.262 469.87H193.252C193.352 470.31 193.542 470.68 193.822 470.98C194.102 471.28 194.455 471.51 194.882 471.67C195.308 471.83 195.782 471.91 196.302 471.91C196.835 471.91 197.322 471.843 197.762 471.71C198.202 471.577 198.555 471.377 198.822 471.11C199.088 470.837 199.222 470.497 199.222 470.09C199.222 469.723 199.112 469.423 198.892 469.19C198.678 468.957 198.388 468.767 198.022 468.62C197.655 468.473 197.238 468.353 196.772 468.26L194.272 467.75C193.178 467.543 192.312 467.11 191.672 466.45C191.032 465.783 190.702 464.897 190.682 463.79C190.675 462.883 190.915 462.1 191.402 461.44C191.895 460.773 192.562 460.26 193.402 459.9C194.248 459.54 195.195 459.36 196.242 459.36C197.488 459.36 198.535 459.557 199.382 459.95C200.235 460.337 200.882 460.863 201.322 461.53C201.768 462.19 201.998 462.927 202.012 463.74H199.082C199.028 463.233 198.875 462.83 198.622 462.53C198.368 462.23 198.042 462.013 197.642 461.88C197.248 461.747 196.798 461.68 196.292 461.68C195.905 461.68 195.552 461.723 195.232 461.81C194.918 461.897 194.652 462.02 194.432 462.18C194.212 462.333 194.042 462.517 193.922 462.73C193.802 462.943 193.742 463.183 193.742 463.45C193.742 463.87 193.882 464.21 194.162 464.47C194.442 464.73 194.965 464.943 195.732 465.11L198.212 465.62C199.098 465.793 199.802 466.05 200.322 466.39C200.848 466.73 201.242 467.113 201.502 467.54C201.768 467.967 201.942 468.403 202.022 468.85C202.108 469.29 202.152 469.697 202.152 470.07C202.152 470.85 201.905 471.553 201.412 472.18C200.925 472.8 200.245 473.293 199.372 473.66C198.498 474.02 197.478 474.2 196.312 474.2ZM214.437 474.2C212.704 474.2 211.297 473.853 210.217 473.16C209.137 472.46 208.517 471.383 208.357 469.93L211.397 469.87C211.557 470.53 211.901 471.033 212.427 471.38C212.961 471.72 213.627 471.89 214.427 471.89C214.907 471.89 215.331 471.813 215.697 471.66C216.071 471.5 216.364 471.287 216.577 471.02C216.791 470.747 216.897 470.437 216.897 470.09C216.897 469.557 216.727 469.16 216.387 468.9C216.047 468.633 215.524 468.42 214.817 468.26L212.447 467.75C211.347 467.53 210.464 467.093 209.797 466.44C209.137 465.78 208.801 464.897 208.787 463.79C208.781 462.883 209.024 462.1 209.517 461.44C210.017 460.773 210.694 460.26 211.547 459.9C212.407 459.54 213.371 459.36 214.437 459.36C215.531 459.36 216.474 459.557 217.267 459.95C218.067 460.337 218.681 460.86 219.107 461.52C219.541 462.173 219.751 462.897 219.737 463.69L216.787 463.74C216.694 463.1 216.481 462.597 216.147 462.23C215.814 461.863 215.261 461.68 214.487 461.68C214.087 461.68 213.731 461.723 213.417 461.81C213.104 461.897 212.834 462.02 212.607 462.18C212.381 462.333 212.207 462.517 212.087 462.73C211.974 462.943 211.917 463.183 211.917 463.45C211.917 463.87 212.057 464.203 212.337 464.45C212.624 464.69 213.161 464.913 213.947 465.12L216.277 465.69C217.591 466.003 218.537 466.54 219.117 467.3C219.704 468.06 219.997 468.983 219.997 470.07C219.997 470.903 219.767 471.63 219.307 472.25C218.854 472.87 218.211 473.35 217.377 473.69C216.544 474.03 215.564 474.2 214.437 474.2ZM213.187 457.47H215.717V460.07H213.187V457.47ZM213.137 473.31H215.657V475.91H213.137V473.31ZM224.42 474V463.17H221.84V461.52C222.667 461.52 223.334 461.443 223.84 461.29C224.354 461.13 224.737 460.903 224.99 460.61C225.244 460.31 225.394 459.953 225.44 459.54H227.38V474H224.42ZM235.995 459.34C237.715 459.34 239.072 459.983 240.065 461.27C241.058 462.55 241.555 464.393 241.555 466.8C241.555 469.193 241.065 471.03 240.085 472.31C239.105 473.583 237.742 474.22 235.995 474.22C234.242 474.22 232.872 473.583 231.885 472.31C230.905 471.037 230.415 469.203 230.415 466.81C230.415 465.21 230.642 463.853 231.095 462.74C231.548 461.627 232.192 460.783 233.025 460.21C233.858 459.63 234.848 459.34 235.995 459.34ZM235.995 471.83C236.855 471.83 237.485 471.447 237.885 470.68C238.285 469.907 238.485 468.617 238.485 466.81C238.485 464.963 238.282 463.64 237.875 462.84C237.468 462.04 236.838 461.64 235.985 461.64C235.132 461.64 234.495 462.043 234.075 462.85C233.662 463.657 233.455 464.977 233.455 466.81C233.455 468.61 233.662 469.897 234.075 470.67C234.488 471.443 235.128 471.83 235.995 471.83ZM249.798 459.54H252.668V468.35H254.898V470.8H252.668V474H249.858L249.868 470.8H243.208V468.4L249.798 459.54ZM245.908 468.35H249.868V463.05L245.908 468.35ZM256.463 474V470.82H259.663V474H256.463ZM267.053 474.22C266.153 474.22 265.313 474.047 264.533 473.7C263.753 473.353 263.117 472.867 262.623 472.24C262.13 471.607 261.853 470.867 261.793 470.02H264.573C264.693 470.58 264.96 471.037 265.373 471.39C265.787 471.737 266.307 471.91 266.933 471.91C267.627 471.91 268.233 471.747 268.753 471.42C269.28 471.093 269.673 470.573 269.933 469.86C270.2 469.147 270.293 468.213 270.213 467.06C270.027 467.413 269.767 467.723 269.433 467.99C269.107 468.25 268.723 468.453 268.283 468.6C267.843 468.74 267.353 468.81 266.813 468.81C265.833 468.81 264.963 468.627 264.203 468.26C263.45 467.887 262.857 467.36 262.423 466.68C261.997 465.993 261.783 465.18 261.783 464.24C261.783 463.293 262.01 462.45 262.463 461.71C262.917 460.97 263.55 460.39 264.363 459.97C265.177 459.55 266.13 459.34 267.223 459.34C268.45 459.34 269.507 459.633 270.393 460.22C271.287 460.8 271.97 461.627 272.443 462.7C272.923 463.767 273.163 465.023 273.163 466.47C273.163 468.197 272.917 469.637 272.423 470.79C271.937 471.937 271.237 472.797 270.323 473.37C269.41 473.937 268.32 474.22 267.053 474.22ZM267.313 466.49C267.72 466.49 268.113 466.4 268.493 466.22C268.88 466.033 269.197 465.8 269.443 465.52C269.69 465.24 269.813 464.95 269.813 464.65C269.82 464.003 269.717 463.45 269.503 462.99C269.297 462.523 269.003 462.167 268.623 461.92C268.25 461.673 267.813 461.55 267.313 461.55C266.853 461.55 266.443 461.657 266.083 461.87C265.723 462.083 265.44 462.383 265.233 462.77C265.027 463.157 264.923 463.603 264.923 464.11C264.923 464.863 265.143 465.45 265.583 465.87C266.023 466.283 266.6 466.49 267.313 466.49ZM280.448 459.34C282.168 459.34 283.525 459.983 284.518 461.27C285.512 462.55 286.008 464.393 286.008 466.8C286.008 469.193 285.518 471.03 284.538 472.31C283.558 473.583 282.195 474.22 280.448 474.22C278.695 474.22 277.325 473.583 276.338 472.31C275.358 471.037 274.868 469.203 274.868 466.81C274.868 465.21 275.095 463.853 275.548 462.74C276.002 461.627 276.645 460.783 277.478 460.21C278.312 459.63 279.302 459.34 280.448 459.34ZM280.448 471.83C281.308 471.83 281.938 471.447 282.338 470.68C282.738 469.907 282.938 468.617 282.938 466.81C282.938 464.963 282.735 463.64 282.328 462.84C281.922 462.04 281.292 461.64 280.438 461.64C279.585 461.64 278.948 462.043 278.528 462.85C278.115 463.657 277.908 464.977 277.908 466.81C277.908 468.61 278.115 469.897 278.528 470.67C278.942 471.443 279.582 471.83 280.448 471.83ZM287.979 474V471.64H290.179V474H287.979Z" fill="#36536B"/>
</g>
</g>
<defs>
<filter id="filter0_d_37_162" x="34" y="324" width="496" height="234" filterUnits="userSpaceOnUse" color-interpolation-filters="sRGB">
<feFlood flood-opacity="0" result="BackgroundImageFix"/>
<feColorMatrix in="SourceAlpha" type="matrix" values="0 0 0 0 0 0 0 0 0 0 0 0 0 0 0 0 0 0 127 0" result="hardAlpha"/>
<feMorphology radius="10" operator="erode" in="SourceAlpha" result="effect1_dropShadow_37_162"/>
<feOffset dx="10" dy="10"/>
<feGaussianBlur stdDeviation="12.5"/>
<feColorMatrix type="matrix" values="0 0 0 0 0.212302 0 0 0 0 0.32521 0 0 0 0 0.419299 0 0 0 0.25 0"/>
<feBlend mode="normal" in2="BackgroundImageFix" result="effect1_dropShadow_37_162"/>
<feBlend mode="normal" in="SourceGraphic" in2="effect1_dropShadow_37_162" result="shape"/>
</filter>
<linearGradient id="paint0_linear_37_162" x1="20.0293" y1="0" x2="20.0293" y2="24.6479" gradientUnits="userSpaceOnUse">
<stop stop-color="#454545" offset="0%"/>
<stop offset="0.226279" stop-color="#999999"/>
<stop offset="1" stop-color="white"/>
</linearGradient>
<linearGradient id="paint1_linear_37_162" x1="520.207" y1="171.495" x2="501.285" y2="171.495" gradientUnits="userSpaceOnUse">
<stop stop-color="white" stop-opacity="0.01" offset="0%"/>
<stop offset="0.222178" stop-color="#BABABA"/>
<stop offset="0.54678" stop-color="white" stop-opacity="0.01"/>
<stop offset="1" stop-color="white" stop-opacity="0.01"/>
</linearGradient>
<linearGradient id="paint2_linear_37_162" x1="5.13595" y1="170.973" x2="24.0881" y2="170.973" gradientUnits="userSpaceOnUse">
<stop stop-color="white" stop-opacity="0.01" offset="0%"/>
<stop offset="0.222178" stop-color="#BABABA"/>
<stop offset="0.54678" stop-color="white" stop-opacity="0.01"/>
<stop offset="1" stop-color="white" stop-opacity="0.01"/>
</linearGradient>
<linearGradient id="paint3_linear_37_162" x1="61.8139" y1="49.7783" x2="61.8139" y2="972.538" gradientUnits="userSpaceOnUse">
<stop stop-color="#9CB6CD" offset="0%"/>
<stop offset="0.420564" stop-color="#9AB3CA"/>
<stop offset="0.716592" stop-color="#557496"/>
<stop offset="1" stop-color="#475178"/>
</linearGradient>
<clipPath id="clip0_37_162">
<rect width="233" height="465" fill="white" transform="translate(30.1484 24.8892) scale(2)"/>
</clipPath>
<clipPath id="clip1_37_162">
<rect width="218" height="87" fill="white" transform="translate(44 334) scale(2)"/>
</clipPath>
<clipPath id="clip2_37_162">
<rect width="187" height="11" fill="white" transform="translate(76 366) scale(2)"/>
</clipPath>
</defs>
</svg>